<svg xmlns="http://www.w3.org/2000/svg" xmlns:xlink="http://www.w3.org/1999/xlink" width="1280" zoomAndPan="magnify" viewBox="0 0 960 599.999999" height="800" preserveAspectRatio="xMidYMid meet" version="1.0"><defs><clipPath id="d0ceff897b"><path d="M 31 23.761719 L 337 23.761719 L 337 282 L 31 282 Z M 31 23.761719 " clip-rule="nonzero"/></clipPath></defs><rect x="-96" width="1152" fill="#ffffff" y="-60" height="719.999999" fill-opacity="1"/><rect x="-96" width="1152" fill="#ffffff" y="-60" height="719.999999" fill-opacity="1"/><g clip-path="url(#d0ceff897b)"><path fill="#d6d0a9" d="M 210.558594 122.230469 L 177.53125 122.230469 L 177.53125 72.550781 L 210.558594 72.550781 Z M 210.558594 174.039062 L 177.53125 174.039062 L 177.53125 124.359375 L 210.558594 124.359375 Z M 210.558594 226.179688 L 177.53125 226.179688 L 177.53125 176.5 L 210.558594 176.5 Z M 175.464844 122.230469 L 142.441406 122.230469 L 142.441406 72.550781 L 175.464844 72.550781 Z M 175.464844 174.039062 L 142.441406 174.039062 L 142.441406 124.359375 L 175.464844 124.359375 Z M 175.464844 226.179688 L 142.441406 226.179688 L 142.441406 176.5 L 175.464844 176.5 Z M 134.96875 122.230469 L 101.941406 122.230469 L 101.941406 72.550781 L 134.96875 72.550781 Z M 134.96875 174.039062 L 101.941406 174.039062 L 101.941406 124.359375 L 134.96875 124.359375 Z M 134.96875 226.179688 L 101.941406 226.179688 L 101.941406 176.5 L 134.96875 176.5 Z M 99.875 174.039062 L 66.851562 174.039062 L 66.851562 124.359375 L 99.875 124.359375 Z M 99.875 226.179688 L 66.851562 226.179688 L 66.851562 176.5 L 99.875 176.5 Z M 210.558594 24.667969 L 210.558594 70.421875 L 177.53125 70.421875 L 177.53125 23.777344 C 176.84375 23.816406 176.15625 23.859375 175.464844 23.910156 L 175.464844 70.421875 L 142.441406 70.421875 L 142.441406 29.21875 C 140.144531 29.84375 137.628906 30.578125 134.96875 31.410156 L 134.96875 70.421875 L 101.941406 70.421875 L 101.941406 45.375 C 101.246094 45.773438 100.558594 46.179688 99.875 46.589844 L 99.875 70.421875 L 70.375 70.421875 C 69.703125 71.121094 69.03125 71.828125 68.363281 72.550781 L 99.875 72.550781 L 99.875 122.230469 L 66.851562 122.230469 L 66.851562 74.203125 C 44.992188 98.476562 27.253906 133.816406 33.082031 178.375 C 39 223.652344 71.40625 262.496094 115.066406 275.039062 C 134.910156 280.742188 159.464844 284.734375 183.1875 275.652344 C 194.503906 271.320312 201.472656 261.070312 220.945312 255.203125 C 247.074219 247.328125 305.082031 263.957031 329.871094 189.902344 C 358.007812 105.851562 297.714844 34.785156 210.558594 24.667969 " fill-opacity="1" fill-rule="nonzero"/></g><path fill="#ffffff" d="M 169.800781 191.789062 C 168.738281 188.535156 165.667969 187.828125 165.921875 184.988281 C 166.039062 183.667969 166.929688 182.507812 166.65625 182.320312 C 166.410156 182.152344 165.511719 183.007812 165.054688 183.523438 C 163.199219 185.613281 161.839844 189.703125 163.1875 193.390625 C 164.339844 196.546875 166.191406 196.191406 166.992188 199.992188 C 167.378906 201.835938 166.859375 203.5625 167.058594 203.59375 C 167.25 203.625 171.929688 198.324219 169.800781 191.789062 " fill-opacity="1" fill-rule="nonzero"/><path fill="#fccc44" d="M 311.957031 64.894531 C 311.957031 79.980469 299.710938 92.214844 284.601562 92.214844 C 269.496094 92.214844 257.25 79.980469 257.25 64.894531 C 257.25 49.804688 269.496094 37.570312 284.601562 37.570312 C 299.710938 37.570312 311.957031 49.804688 311.957031 64.894531 " fill-opacity="1" fill-rule="nonzero"/><path fill="#1e1735" d="M 284.601562 88.191406 C 271.742188 88.191406 261.277344 77.742188 261.277344 64.890625 C 261.277344 52.042969 271.742188 41.59375 284.601562 41.59375 C 297.46875 41.59375 307.929688 52.042969 307.929688 64.890625 C 307.929688 77.742188 297.46875 88.191406 284.601562 88.191406 " fill-opacity="1" fill-rule="nonzero"/><path fill="#ffffff" d="M 306.585938 64.890625 C 306.585938 77.019531 296.746094 86.851562 284.605469 86.851562 C 272.464844 86.851562 262.621094 77.019531 262.621094 64.890625 C 262.621094 52.765625 272.464844 42.933594 284.605469 42.933594 C 296.746094 42.933594 306.585938 52.765625 306.585938 64.890625 " fill-opacity="1" fill-rule="nonzero"/><path fill="#1e1735" d="M 285.785156 65.328125 L 284.617188 45.4375 L 283.519531 64.160156 L 270.59375 75.117188 L 285.785156 65.328125 " fill-opacity="1" fill-rule="nonzero"/><path fill="#686bea" d="M 309.261719 210.882812 C 307.714844 214.488281 304.472656 216.964844 302.078125 218.183594 C 302.898438 214.3125 303.558594 209.574219 303.820312 204.605469 C 304.484375 204.261719 305.390625 204.03125 306.640625 204.257812 C 307.816406 204.46875 308.671875 205.058594 309.183594 206.011719 C 310.015625 207.546875 309.804688 209.613281 309.261719 210.882812 Z M 311.136719 204.960938 C 310.300781 203.402344 308.882812 202.40625 307.035156 202.074219 C 305.796875 201.851562 304.765625 201.949219 303.917969 202.195312 C 303.945312 201.105469 303.949219 200.015625 303.933594 198.921875 C 303.929688 198.753906 303.792969 198.625 303.628906 198.625 L 280.925781 198.625 C 280.757812 198.625 280.625 198.757812 280.621094 198.925781 C 280.449219 210.496094 282.878906 222.140625 284.9375 226.136719 C 285.042969 226.335938 285.246094 226.460938 285.46875 226.460938 L 299.09375 226.457031 C 299.320312 226.457031 299.523438 226.332031 299.625 226.132812 C 300.226562 224.964844 300.859375 223.144531 301.449219 220.863281 C 304.3125 219.828125 309.136719 216.816406 311.300781 211.753906 C 312.074219 209.953125 312.324219 207.15625 311.136719 204.960938 " fill-opacity="1" fill-rule="nonzero"/><path fill="#ffffff" d="M 288.875 182.082031 C 290.230469 177.925781 294.152344 177.019531 293.832031 173.390625 C 293.679688 171.703125 292.542969 170.21875 292.890625 169.984375 C 293.210938 169.769531 294.355469 170.859375 294.941406 171.515625 C 297.308594 174.191406 299.046875 179.417969 297.328125 184.128906 C 295.855469 188.164062 293.488281 187.707031 292.464844 192.5625 C 291.96875 194.921875 292.632812 197.121094 292.378906 197.164062 C 292.132812 197.203125 286.152344 190.433594 288.875 182.082031 " fill-opacity="1" fill-rule="nonzero"/><path fill="#1e1735" d="M 196.625 66.398438 C 195.175781 67.398438 193.773438 68.519531 192.585938 69.863281 C 191.386719 71.191406 190.308594 72.644531 189.414062 74.210938 C 187.59375 77.332031 186.414062 80.78125 185.550781 84.25 C 185.128906 85.988281 184.78125 87.738281 184.46875 89.476562 C 184.308594 90.335938 184.167969 91.230469 184.035156 92.121094 C 183.960938 92.5625 183.914062 93.011719 183.863281 93.457031 L 183.714844 94.800781 C 183.402344 98.382812 183.410156 102 183.789062 105.582031 C 183.980469 107.371094 184.253906 109.15625 184.621094 110.925781 C 184.808594 111.808594 185.019531 112.6875 185.261719 113.566406 L 185.449219 114.222656 L 185.636719 114.855469 C 185.757812 115.28125 185.890625 115.703125 186.019531 116.128906 C 187.074219 119.53125 188.359375 122.914062 190.078125 126.085938 C 191.785156 129.257812 193.910156 132.226562 196.472656 134.753906 C 199.035156 137.273438 202.007812 139.363281 205.253906 140.765625 C 202.3125 138.816406 199.675781 136.5 197.492188 133.820312 C 195.292969 131.164062 193.496094 128.210938 192.058594 125.09375 C 191.332031 123.539062 190.699219 121.941406 190.125 120.320312 C 189.558594 118.695312 189.042969 117.050781 188.582031 115.375 L 188.234375 114.113281 L 188.0625 113.480469 L 187.898438 112.863281 C 187.691406 112.042969 187.503906 111.210938 187.34375 110.371094 C 187.011719 108.695312 186.761719 106.996094 186.585938 105.289062 C 186.488281 104.4375 186.425781 103.582031 186.363281 102.726562 C 186.339844 102.296875 186.324219 101.867188 186.304688 101.441406 C 186.28125 101.011719 186.273438 100.582031 186.269531 100.152344 C 186.207031 98.4375 186.289062 96.722656 186.371094 95.007812 L 186.472656 93.722656 C 186.507812 93.292969 186.539062 92.863281 186.597656 92.441406 C 186.703125 91.585938 186.785156 90.738281 186.914062 89.863281 C 187.152344 88.128906 187.398438 86.414062 187.710938 84.710938 C 188.335938 81.316406 189.210938 77.972656 190.636719 74.839844 C 191.3125 73.253906 192.210938 71.777344 193.1875 70.347656 L 193.960938 69.296875 C 194.230469 68.957031 194.527344 68.636719 194.808594 68.304688 L 195.230469 67.800781 C 195.382812 67.644531 195.539062 67.492188 195.695312 67.335938 L 196.625 66.398438 " fill-opacity="1" fill-rule="nonzero"/><path fill="#1e1735" d="M 219.097656 59.933594 C 217.882812 59.679688 217.445312 59.035156 216.570312 58.835938 C 209.96875 57.332031 201.066406 62.234375 197.542969 64.992188 C 189.230469 71.496094 187.582031 82.03125 186.464844 89.175781 C 184.59375 101.144531 187.113281 110.476562 187.664062 112.429688 C 189.515625 118.953125 193.320312 132.382812 206.167969 139.363281 C 216.84375 145.164062 227.640625 143.1875 230.957031 142.582031 C 234.945312 141.851562 240.722656 140.71875 246.179688 135.992188 C 247.96875 134.441406 252.953125 129.703125 254.757812 121.988281 C 256.683594 113.75 254.933594 106.804688 252.75 101.503906 C 250.375 95.730469 245.738281 92.671875 241.363281 84.078125 C 238.367188 78.195312 239.636719 69.207031 227.375 62.078125 C 222.457031 59.21875 221.136719 60.351562 219.097656 59.933594 " fill-opacity="1" fill-rule="nonzero"/><path fill="#1e1735" d="M 248.890625 136.097656 C 250.453125 134.855469 251.871094 133.417969 253.117188 131.828125 C 254.375 130.246094 255.429688 128.5 256.304688 126.652344 C 257.167969 124.804688 257.804688 122.824219 258.203125 120.820312 C 258.617188 118.816406 258.832031 116.761719 258.839844 114.703125 C 258.847656 112.644531 258.65625 110.582031 258.265625 108.554688 C 257.875 106.53125 257.289062 104.550781 256.578125 102.625 C 256.394531 102.148438 256.210938 101.664062 256.011719 101.195312 L 255.714844 100.492188 C 255.613281 100.253906 255.488281 100.011719 255.375 99.773438 C 254.925781 98.804688 254.375 97.898438 253.804688 97.015625 C 252.632812 95.28125 251.3125 93.722656 250.050781 92.203125 C 248.777344 90.6875 247.554688 89.179688 246.433594 87.601562 C 246.144531 87.210938 245.875 86.8125 245.605469 86.410156 L 245.199219 85.808594 L 244.808594 85.195312 C 244.550781 84.789062 244.289062 84.378906 244.050781 83.960938 L 243.683594 83.332031 L 243.5 83.023438 C 243.445312 82.917969 243.398438 82.820312 243.34375 82.71875 C 242.492188 81.128906 241.925781 79.265625 241.28125 77.375 C 240.960938 76.425781 240.628906 75.460938 240.25 74.507812 C 240.074219 74.027344 239.84375 73.558594 239.640625 73.085938 C 239.441406 72.609375 239.1875 72.152344 238.953125 71.691406 C 237.980469 69.851562 236.742188 68.140625 235.308594 66.636719 C 234.546875 65.9375 233.828125 65.1875 232.988281 64.589844 L 232.378906 64.117188 C 232.175781 63.960938 231.972656 63.804688 231.753906 63.671875 L 230.464844 62.839844 C 230.042969 62.554688 229.585938 62.332031 229.136719 62.09375 L 227.792969 61.386719 C 226.878906 60.945312 225.945312 60.535156 224.96875 60.234375 C 223.992188 59.933594 222.96875 59.730469 221.941406 59.730469 C 220.914062 59.726562 219.949219 59.984375 218.949219 59.890625 C 219.433594 60.015625 219.941406 60.050781 220.441406 60.0625 C 220.941406 60.078125 221.433594 60.089844 221.917969 60.15625 C 222.882812 60.273438 223.808594 60.570312 224.695312 60.964844 C 225.578125 61.363281 226.4375 61.832031 227.269531 62.34375 L 228.496094 63.148438 C 228.90625 63.417969 229.320312 63.675781 229.695312 63.988281 L 230.847656 64.875 C 231.042969 65.015625 231.222656 65.179688 231.398438 65.34375 L 231.933594 65.832031 C 232.671875 66.453125 233.285156 67.191406 233.941406 67.882812 C 235.15625 69.351562 236.171875 70.957031 236.96875 72.675781 C 237.777344 74.394531 238.359375 76.226562 238.914062 78.117188 C 239.472656 80.007812 240.007812 81.992188 240.972656 83.949219 C 241.035156 84.070312 241.089844 84.195312 241.152344 84.3125 L 241.339844 84.648438 L 241.710938 85.316406 C 241.957031 85.765625 242.222656 86.199219 242.492188 86.636719 L 242.890625 87.289062 L 243.308594 87.933594 C 243.585938 88.359375 243.867188 88.789062 244.164062 89.203125 C 245.335938 90.875 246.613281 92.464844 247.890625 94 C 249.175781 95.53125 250.433594 97.015625 251.503906 98.570312 C 252.027344 99.347656 252.523438 100.136719 252.925781 100.96875 C 253.03125 101.175781 253.136719 101.375 253.234375 101.59375 L 253.53125 102.253906 C 253.722656 102.699219 253.910156 103.140625 254.09375 103.585938 C 254.8125 105.375 255.402344 107.203125 255.84375 109.066406 C 256.269531 110.933594 256.542969 112.835938 256.636719 114.753906 C 256.730469 116.667969 256.640625 118.59375 256.386719 120.511719 C 256.140625 122.429688 255.695312 124.300781 255.03125 126.125 C 254.386719 127.953125 253.519531 129.714844 252.480469 131.382812 C 251.972656 132.222656 251.40625 133.03125 250.804688 133.816406 C 250.210938 134.609375 249.5625 135.363281 248.890625 136.097656 " fill-opacity="1" fill-rule="nonzero"/><path fill="#686bea" d="M 179.511719 209.597656 C 179.585938 216.238281 179.503906 222.691406 179.207031 229.175781 L 252.703125 229.175781 C 246.019531 178.972656 260.882812 180.882812 268.191406 162.777344 C 272.898438 151.125 275.832031 135.945312 265.769531 134.570312 C 256.460938 133.296875 244.28125 130.207031 235.292969 127.578125 C 226.308594 124.949219 223.933594 124.261719 218.632812 124.410156 C 210.183594 124.648438 207.664062 128.503906 194.523438 131.738281 C 180.664062 135.148438 182.726562 135.242188 180.097656 138.089844 C 178.707031 139.59375 169.445312 168.875 171.3125 179.632812 C 172.261719 185.117188 179.4375 203.117188 179.511719 209.597656 " fill-opacity="1" fill-rule="nonzero"/><path fill="#686bea" d="M 267.078125 134.90625 C 266.785156 134.835938 273.488281 135.90625 275.246094 146.929688 C 276.644531 155.710938 276.277344 173.234375 274.386719 183.902344 C 272.375 195.28125 266.386719 212.792969 261.941406 219.316406 C 257.496094 225.84375 253.636719 227.941406 249.636719 227.539062 C 245.632812 227.136719 239.6875 218.269531 239.738281 208.019531 C 239.789062 197.769531 249.671875 161.453125 254.175781 152.207031 C 258.675781 142.960938 261.300781 133.476562 267.078125 134.90625 " fill-opacity="1" fill-rule="nonzero"/><path fill="#686bea" d="M 183.617188 134.839844 C 183.617188 134.839844 175.523438 137.316406 172.472656 144.179688 C 169.925781 149.914062 162.4375 172.664062 160.855469 182.871094 C 159.023438 194.699219 158.132812 203.480469 158.664062 210.738281 C 159.222656 218.398438 159.574219 237.421875 182.777344 224.609375 C 195.28125 217.699219 187.339844 139.21875 183.617188 134.839844 " fill-opacity="1" fill-rule="nonzero"/><path fill="#686bea" d="M 158.714844 227.410156 C 160.761719 229.339844 163.292969 229.519531 167.546875 229.175781 C 171.765625 228.839844 174.726562 224.617188 176.113281 222.132812 C 178.074219 218.613281 178.28125 214.429688 178.078125 211.71875 C 177.699219 206.65625 176.816406 204.199219 174.855469 201.59375 C 173.632812 199.976562 172.375 198.308594 171.289062 195.855469 C 171.15625 195.550781 170.8125 195.390625 170.492188 195.484375 C 170.179688 195.570312 169.976562 195.875 170.015625 196.195312 C 170.566406 201.007812 166 206.933594 161.144531 209.625 C 158.226562 211.242188 155.726562 211.390625 154.285156 210.035156 C 154.136719 209.894531 154 209.734375 153.871094 209.5625 C 153.691406 209.324219 153.382812 209.222656 153.101562 209.320312 L 153.023438 209.347656 C 152.71875 209.457031 152.539062 209.769531 152.589844 210.085938 C 153.488281 215.527344 154.472656 219.691406 155.375 221.851562 C 156.535156 224.636719 157.53125 226.296875 158.714844 227.410156 " fill-opacity="1" fill-rule="nonzero"/><path fill="#fccc44" d="M 162.675781 226.515625 L 154.351562 218.28125 C 154.566406 219.117188 154.777344 219.867188 154.988281 220.515625 L 161.808594 227.390625 L 162.675781 226.515625 " fill-opacity="1" fill-rule="nonzero"/><path fill="#fccc44" d="M 162.238281 227.828125 L 163.753906 229.351562 C 164.3125 229.386719 164.910156 229.386719 165.554688 229.367188 L 163.117188 226.953125 L 162.238281 227.828125 " fill-opacity="1" fill-rule="nonzero"/><path fill="#fccc44" d="M 162.421875 187.878906 L 160.519531 185.960938 C 160.421875 186.617188 160.328125 187.261719 160.238281 187.898438 L 161.320312 188.96875 L 162.421875 187.878906 " fill-opacity="1" fill-rule="nonzero"/><path fill="#fccc44" d="M 162.503906 190.144531 L 180.796875 208.246094 L 181.710938 207.324219 L 163.585938 189.054688 L 162.503906 190.144531 " fill-opacity="1" fill-rule="nonzero"/><path fill="#fccc44" d="M 181.410156 208.851562 L 199.703125 226.953125 L 200.449219 226.21875 L 182.324219 207.945312 L 181.410156 208.851562 " fill-opacity="1" fill-rule="nonzero"/><path fill="#fccc44" d="M 200.886719 228.125 L 202.011719 229.242188 L 203.449219 229.242188 L 201.613281 227.390625 L 200.886719 228.125 " fill-opacity="1" fill-rule="nonzero"/><path fill="#fccc44" d="M 181.410156 169.089844 L 168.285156 156.101562 C 168.191406 156.386719 168.097656 156.671875 168.003906 156.960938 L 180.714844 169.777344 L 181.410156 169.089844 " fill-opacity="1" fill-rule="nonzero"/><path fill="#fccc44" d="M 219.738281 209.121094 L 237.863281 227.390625 L 239.082031 226.164062 L 220.789062 208.058594 L 219.738281 209.121094 " fill-opacity="1" fill-rule="nonzero"/><path fill="#fccc44" d="M 238.640625 228.179688 L 239.695312 229.242188 L 242.191406 229.242188 L 239.882812 226.953125 L 238.640625 228.179688 " fill-opacity="1" fill-rule="nonzero"/><path fill="#fccc44" d="M 200.617188 189.84375 L 218.742188 208.113281 L 219.792969 207.074219 L 201.5 188.96875 L 200.617188 189.84375 " fill-opacity="1" fill-rule="nonzero"/><path fill="#fccc44" d="M 181.710938 170.78125 L 199.832031 189.054688 L 200.699219 188.179688 L 182.40625 170.078125 L 181.710938 170.78125 " fill-opacity="1" fill-rule="nonzero"/><path fill="#fccc44" d="M 219.792969 170.867188 L 238.085938 188.96875 L 238.828125 188.234375 L 220.707031 169.960938 L 219.792969 170.867188 " fill-opacity="1" fill-rule="nonzero"/><path fill="#fccc44" d="M 200.804688 149.898438 L 185.359375 134.324219 C 184.714844 134.539062 184.1875 134.738281 183.757812 134.933594 C 183.75 134.921875 183.742188 134.910156 183.734375 134.902344 C 183.734375 134.902344 183.660156 134.925781 183.519531 134.972656 L 199.703125 150.984375 L 200.804688 149.898438 " fill-opacity="1" fill-rule="nonzero"/><path fill="#fccc44" d="M 238.910156 189.789062 L 257.203125 207.890625 L 257.765625 207.324219 L 239.640625 189.054688 L 238.910156 189.789062 " fill-opacity="1" fill-rule="nonzero"/><path fill="#fccc44" d="M 200.53125 151.804688 L 218.824219 169.90625 L 219.738281 168.984375 L 201.613281 150.714844 L 200.53125 151.804688 " fill-opacity="1" fill-rule="nonzero"/><path fill="#fccc44" d="M 258.175781 208.851562 L 264.480469 215.09375 C 264.589844 214.875 264.695312 214.648438 264.804688 214.421875 L 258.730469 208.300781 L 258.175781 208.851562 " fill-opacity="1" fill-rule="nonzero"/><path fill="#fccc44" d="M 257.765625 170.78125 L 273.898438 187.046875 C 274.046875 186.367188 274.183594 185.703125 274.308594 185.054688 L 258.8125 169.722656 L 257.765625 170.78125 " fill-opacity="1" fill-rule="nonzero"/><path fill="#fccc44" d="M 219.738281 132.441406 L 237.863281 150.714844 L 238.726562 149.84375 L 220.433594 131.738281 L 219.738281 132.441406 " fill-opacity="1" fill-rule="nonzero"/><path fill="#fccc44" d="M 219.792969 131.105469 L 213.761719 125.136719 C 213.425781 125.222656 213.09375 125.3125 212.761719 125.410156 L 219.097656 131.792969 L 219.792969 131.105469 " fill-opacity="1" fill-rule="nonzero"/><path fill="#fccc44" d="M 239 151.859375 L 257.121094 170.132812 L 258.175781 169.089844 L 239.882812 150.984375 L 239 151.859375 " fill-opacity="1" fill-rule="nonzero"/><path fill="#fccc44" d="M 275.59375 148.621094 L 260.929688 133.839844 C 260.203125 133.707031 259.464844 133.570312 258.722656 133.421875 L 275.773438 150.300781 C 275.71875 149.71875 275.660156 149.15625 275.59375 148.621094 " fill-opacity="1" fill-rule="nonzero"/><path fill="#fccc44" d="M 163.585938 189.054688 L 181.710938 170.78125 L 182.40625 170.078125 L 200.53125 151.804688 L 201.613281 150.714844 L 219.738281 132.441406 L 220.433594 131.738281 L 226.851562 125.269531 C 226.523438 125.191406 226.210938 125.121094 225.902344 125.058594 L 219.792969 131.105469 L 219.097656 131.792969 L 200.804688 149.898438 L 199.703125 150.984375 L 181.410156 169.089844 L 180.714844 169.777344 L 162.421875 187.878906 L 161.320312 188.96875 L 159.898438 190.375 C 159.777344 191.3125 159.660156 192.222656 159.554688 193.117188 L 162.503906 190.144531 L 163.585938 189.054688 " fill-opacity="1" fill-rule="nonzero"/><path fill="#fccc44" d="M 163.117188 226.953125 L 181.410156 208.851562 L 182.324219 207.945312 L 200.617188 189.84375 L 201.5 188.96875 L 219.792969 170.867188 L 220.707031 169.960938 L 239 151.859375 L 239.882812 150.984375 L 257.8125 133.242188 C 257.089844 133.097656 256.367188 132.949219 255.636719 132.792969 L 238.726562 149.84375 L 237.863281 150.714844 L 219.738281 168.984375 L 218.824219 169.90625 L 200.699219 188.179688 L 199.832031 189.054688 L 181.710938 207.324219 L 180.796875 208.246094 L 162.675781 226.515625 L 161.808594 227.390625 L 160.5625 228.648438 C 160.753906 228.738281 160.953125 228.820312 161.160156 228.890625 L 162.238281 227.828125 L 163.117188 226.953125 " fill-opacity="1" fill-rule="nonzero"/><path fill="#fccc44" d="M 201.613281 227.390625 L 219.738281 209.121094 L 220.789062 208.058594 L 238.910156 189.789062 L 239.640625 189.054688 L 257.765625 170.78125 L 258.8125 169.722656 L 275.945312 152.449219 C 275.925781 152.148438 275.90625 151.855469 275.882812 151.566406 L 258.175781 169.089844 L 257.121094 170.132812 L 238.828125 188.234375 L 238.085938 188.96875 L 219.792969 207.074219 L 218.742188 208.113281 L 200.449219 226.21875 L 199.703125 226.953125 L 197.390625 229.242188 L 199.777344 229.242188 L 200.886719 228.125 L 201.613281 227.390625 " fill-opacity="1" fill-rule="nonzero"/><path fill="#fccc44" d="M 239.882812 226.953125 L 258.175781 208.851562 L 258.730469 208.300781 L 271.773438 195.394531 C 272.066406 194.371094 272.347656 193.355469 272.617188 192.351562 L 257.765625 207.324219 L 257.203125 207.890625 L 239.082031 226.164062 L 237.863281 227.390625 L 236.027344 229.242188 L 237.570312 229.242188 L 238.640625 228.179688 L 239.882812 226.953125 " fill-opacity="1" fill-rule="nonzero"/><path fill="#f79556" d="M 241.429688 187.132812 C 243.707031 189.941406 247.589844 193.15625 253.4375 193.15625 C 256.449219 193.15625 259.742188 192.308594 263.226562 190.632812 L 264.152344 190.1875 C 264.734375 182.378906 264.746094 172.457031 263.503906 163.417969 C 260.972656 145.027344 261.390625 147.992188 260.320312 142.46875 C 259.273438 137.074219 259.675781 127.859375 254.039062 125.96875 C 252.152344 125.335938 249.972656 126.675781 248.796875 128.085938 C 247.25 129.941406 248.539062 132.375 248.792969 136.019531 C 249.816406 150.800781 248.660156 162.042969 246.300781 171.207031 C 244.28125 179.066406 243.265625 179.984375 241.429688 187.132812 " fill-opacity="1" fill-rule="nonzero"/><path fill="#1e1735" d="M 240.347656 184.011719 C 240.03125 184.058594 239.695312 184.117188 239.429688 184.261719 C 239.367188 184.304688 239.324219 184.335938 239.335938 184.394531 C 239.34375 184.453125 239.371094 184.515625 239.40625 184.574219 C 239.484375 184.691406 239.589844 184.800781 239.699219 184.90625 C 239.808594 185.011719 239.929688 185.109375 240.054688 185.207031 L 240.4375 185.507812 C 240.6875 185.707031 240.945312 185.898438 241.199219 186.085938 C 242.230469 186.835938 243.300781 187.503906 244.394531 188.109375 C 246.585938 189.3125 248.898438 190.238281 251.289062 190.851562 C 252.484375 191.164062 253.699219 191.398438 254.929688 191.566406 C 256.15625 191.738281 257.378906 191.824219 258.59375 191.789062 C 259.804688 191.75 261.003906 191.574219 262.136719 191.15625 C 262.703125 190.945312 263.242188 190.667969 263.746094 190.3125 C 263.996094 190.132812 264.238281 189.929688 264.453125 189.703125 C 264.566406 189.59375 264.671875 189.472656 264.769531 189.34375 C 264.816406 189.28125 264.859375 189.214844 264.902344 189.148438 C 264.941406 189.082031 265.003906 189.007812 264.996094 188.933594 C 265.042969 189.097656 264.976562 189.273438 264.9375 189.429688 C 264.886719 189.59375 264.828125 189.753906 264.757812 189.90625 C 264.609375 190.21875 264.429688 190.511719 264.222656 190.789062 C 263.800781 191.34375 263.269531 191.8125 262.6875 192.207031 C 261.515625 192.988281 260.148438 193.433594 258.789062 193.660156 C 257.421875 193.890625 256.042969 193.902344 254.691406 193.800781 C 253.34375 193.691406 252.003906 193.460938 250.691406 193.105469 C 248.070312 192.402344 245.578125 191.203125 243.4375 189.566406 C 242.363281 188.753906 241.382812 187.828125 240.519531 186.804688 C 240.304688 186.546875 240.101562 186.28125 239.90625 186.011719 L 239.625 185.605469 C 239.527344 185.464844 239.433594 185.320312 239.351562 185.164062 C 239.265625 185.011719 239.191406 184.847656 239.15625 184.660156 C 239.140625 184.566406 239.132812 184.46875 239.164062 184.367188 C 239.175781 184.320312 239.203125 184.253906 239.246094 184.21875 C 239.285156 184.183594 239.328125 184.160156 239.367188 184.140625 C 239.695312 184.015625 240.019531 184.019531 240.347656 184.011719 " fill-opacity="1" fill-rule="nonzero"/><path fill="#1e1735" d="M 252.734375 222.628906 C 252.046875 223.292969 251.199219 223.808594 250.261719 224.148438 C 249.320312 224.484375 248.273438 224.609375 247.238281 224.496094 C 246.207031 224.378906 245.199219 224.039062 244.304688 223.539062 C 243.398438 223.046875 242.605469 222.402344 241.898438 221.703125 C 241.542969 221.351562 241.21875 220.976562 240.90625 220.597656 C 240.597656 220.210938 240.308594 219.824219 240.023438 219.433594 C 239.460938 218.644531 238.941406 217.824219 238.480469 216.96875 C 237.558594 215.265625 236.847656 213.457031 236.339844 211.605469 C 235.335938 207.890625 235.105469 204.046875 235.355469 200.289062 C 235.601562 196.523438 236.304688 192.824219 237.273438 189.222656 C 237.296875 189.140625 237.382812 189.089844 237.464844 189.113281 C 237.542969 189.132812 237.589844 189.210938 237.578125 189.289062 C 237.277344 191.125 237.039062 192.964844 236.855469 194.804688 C 236.683594 196.648438 236.582031 198.492188 236.578125 200.328125 C 236.5625 204.003906 236.957031 207.671875 238.015625 211.117188 C 238.554688 212.835938 239.253906 214.496094 240.136719 216.046875 C 240.582031 216.824219 241.070312 217.574219 241.597656 218.292969 L 242.003906 218.824219 L 242.429688 219.328125 C 242.714844 219.660156 243.011719 219.980469 243.316406 220.289062 C 244.53125 221.511719 245.917969 222.515625 247.523438 222.960938 C 248.324219 223.183594 249.175781 223.261719 250.054688 223.203125 C 250.933594 223.148438 251.824219 222.917969 252.734375 222.628906 " fill-opacity="1" fill-rule="nonzero"/><path fill="#1e1735" d="M 177.828125 143.949219 C 175.941406 150.761719 173.636719 157.441406 172.113281 164.402344 C 171.742188 166.144531 171.410156 167.898438 171.191406 169.683594 C 171.074219 170.574219 171 171.472656 170.941406 172.375 C 170.886719 173.277344 170.882812 174.1875 170.910156 175.101562 C 170.953125 176.015625 171.054688 176.945312 171.191406 177.84375 C 171.34375 178.742188 171.523438 179.632812 171.738281 180.503906 C 172.152344 182.257812 172.671875 183.960938 173.191406 185.65625 C 174.246094 189.039062 175.324219 192.378906 176.242188 195.757812 C 176.363281 196.179688 176.46875 196.601562 176.582031 197.027344 C 176.695312 197.449219 176.800781 197.871094 176.902344 198.296875 C 177.121094 199.144531 177.316406 199.996094 177.511719 200.847656 C 177.890625 202.558594 178.230469 204.273438 178.527344 205.996094 C 179.105469 209.445312 179.535156 212.929688 179.761719 216.4375 C 180.003906 219.945312 180.0625 223.46875 180.042969 227.007812 C 180.558594 223.503906 180.796875 219.957031 180.828125 216.40625 C 180.839844 214.628906 180.796875 212.847656 180.695312 211.070312 C 180.585938 209.292969 180.414062 207.515625 180.191406 205.75 C 179.953125 203.980469 179.679688 202.21875 179.332031 200.46875 C 179.152344 199.59375 178.976562 198.71875 178.773438 197.851562 C 178.675781 197.417969 178.574219 196.980469 178.464844 196.550781 C 178.355469 196.117188 178.253906 195.683594 178.140625 195.253906 C 177.703125 193.527344 177.199219 191.820312 176.683594 190.121094 C 176.164062 188.425781 175.613281 186.742188 175.078125 185.066406 C 174.535156 183.390625 174.015625 181.714844 173.566406 180.042969 C 173.339844 179.207031 173.152344 178.367188 172.984375 177.53125 C 172.820312 176.6875 172.714844 175.859375 172.652344 175.011719 C 172.550781 173.3125 172.605469 171.582031 172.769531 169.851562 C 172.925781 168.125 173.171875 166.394531 173.472656 164.667969 C 174.050781 161.207031 174.859375 157.773438 175.632812 154.328125 L 176.226562 151.746094 C 176.421875 150.882812 176.609375 150.019531 176.796875 149.15625 C 177.175781 147.429688 177.527344 145.695312 177.828125 143.949219 " fill-opacity="1" fill-rule="nonzero"/><path fill="#ec7d40" d="M 207.441406 113.863281 C 206.71875 116.285156 207.785156 131.285156 208.570312 133.703125 C 210.125 138.46875 216.011719 140.640625 220.886719 139.984375 C 227.902344 139.046875 231.027344 135.203125 231.246094 130.078125 C 231.621094 121.382812 231.40625 116.578125 232.53125 102.878906 C 232.832031 99.199219 208.839844 109.183594 207.441406 113.863281 " fill-opacity="1" fill-rule="nonzero"/><path fill="#ffffff" d="M 200.773438 98.355469 C 200.773438 101.765625 199.273438 108.546875 198 109.527344 C 196.457031 110.714844 194.160156 110.203125 193.78125 110.058594 C 191.539062 109.195312 189.847656 104.816406 189.847656 98.355469 C 189.847656 91.890625 191.429688 87.132812 193.78125 86.652344 C 194.007812 86.605469 197.105469 85.816406 198.347656 87.476562 C 200.378906 90.175781 200.773438 94.550781 200.773438 98.355469 " fill-opacity="1" fill-rule="nonzero"/><path fill="#686bea" d="M 200.84375 98.359375 C 200.84375 104.820312 199.082031 110.0625 196.914062 110.0625 C 194.742188 110.0625 192.980469 104.820312 192.980469 98.359375 C 192.980469 91.894531 194.742188 86.65625 196.914062 86.65625 C 199.082031 86.65625 200.84375 91.894531 200.84375 98.359375 " fill-opacity="1" fill-rule="nonzero"/><path fill="#f79556" d="M 196.445312 73.351562 C 192.796875 80.347656 193.203125 92.453125 193.761719 95.039062 C 194.324219 97.628906 194.671875 97.273438 194.277344 98.726562 C 193.882812 100.183594 194.425781 104.332031 196.476562 109.328125 C 198.527344 114.324219 203.097656 120.859375 205.238281 122.148438 C 207.382812 123.4375 209.800781 124.160156 212.882812 123.664062 C 215.96875 123.171875 222.929688 118.953125 226.902344 112.445312 C 230.019531 107.335938 232.316406 103.136719 232.351562 99.824219 C 232.390625 96.511719 234.910156 85.894531 231.59375 79.828125 C 228.277344 73.761719 225.753906 68.9375 217.054688 66.644531 C 214.777344 66.042969 203.128906 60.53125 196.445312 73.351562 " fill-opacity="1" fill-rule="nonzero"/><path fill="#d65b5b" d="M 214.699219 113.304688 C 214.828125 113.097656 214.695312 112.828125 214.453125 112.808594 C 213.40625 112.714844 210.871094 112.546875 207.976562 112.765625 C 205.996094 112.914062 204.128906 113.375 203.351562 113.585938 C 203.148438 113.640625 203.054688 113.871094 203.15625 114.058594 C 203.675781 115.019531 205.382812 117.527344 208.914062 117.230469 C 212.089844 116.960938 214.03125 114.363281 214.699219 113.304688 " fill-opacity="1" fill-rule="nonzero"/><path fill="#1e1735" d="M 200.117188 91.234375 C 199.867188 90.695312 199.492188 90.257812 199.066406 89.886719 C 198.644531 89.511719 198.15625 89.210938 197.632812 88.976562 C 196.582031 88.5 195.355469 88.570312 194.242188 88.75 C 193.964844 88.796875 193.683594 88.835938 193.414062 88.921875 L 193.007812 89.027344 C 191.875 89.511719 192.582031 90.496094 193 90.410156 L 193.3125 90.359375 L 193.664062 90.328125 C 193.890625 90.296875 194.125 90.304688 194.355469 90.304688 C 194.585938 90.300781 194.816406 90.34375 195.042969 90.371094 C 195.269531 90.425781 195.492188 90.457031 195.710938 90.527344 C 196.152344 90.640625 196.582031 90.757812 197.035156 90.835938 L 198.4375 91.109375 C 198.925781 91.207031 199.425781 91.304688 199.996094 91.386719 L 200.117188 91.234375 " fill-opacity="1" fill-rule="nonzero"/><path fill="#1e1735" d="M 221.835938 87.570312 C 220.769531 86.820312 219.546875 86.300781 218.25 85.945312 C 216.949219 85.605469 215.550781 85.519531 214.160156 85.714844 C 213.808594 85.753906 213.46875 85.835938 213.113281 85.886719 C 212.765625 85.964844 212.417969 86.054688 212.070312 86.148438 C 211.382812 86.359375 210.742188 86.714844 210.199219 87.1875 C 209.125 88.128906 208.3125 89.382812 208.160156 90.839844 L 208.367188 90.984375 C 209.652344 90.351562 210.640625 89.761719 211.644531 89.257812 C 212.140625 89 212.609375 88.730469 213.082031 88.429688 C 213.324219 88.292969 213.5625 88.148438 213.8125 88.011719 C 214.070312 87.898438 214.328125 87.769531 214.601562 87.683594 C 215.144531 87.515625 215.707031 87.367188 216.289062 87.304688 C 216.871094 87.210938 217.46875 87.183594 218.070312 87.195312 C 219.285156 87.195312 220.515625 87.425781 221.722656 87.792969 L 221.835938 87.570312 " fill-opacity="1" fill-rule="nonzero"/><path fill="#e6e6e6" d="M 217.570312 94.210938 C 217.566406 94.546875 216.550781 95.535156 213.542969 95.496094 C 212.207031 95.476562 210.871094 95.128906 210.882812 94.460938 C 210.890625 93.820312 211.761719 92.65625 212.914062 92.480469 C 214.925781 92.171875 217.582031 93.542969 217.570312 94.210938 " fill-opacity="1" fill-rule="nonzero"/><path fill="#1e1735" d="M 214.929688 93.300781 C 214.191406 91.558594 211.058594 92.246094 211.75 94.613281 C 212.441406 96.984375 216.117188 96.101562 214.929688 93.300781 " fill-opacity="1" fill-rule="nonzero"/><path fill="#e6e6e6" d="M 199.359375 96.464844 C 199.355469 96.789062 198.515625 97.75 196.035156 97.71875 C 194.933594 97.703125 194.402344 97.152344 194.414062 96.503906 C 194.421875 95.886719 194.574219 94.972656 195.523438 94.800781 C 197.179688 94.496094 199.367188 95.820312 199.359375 96.464844 " fill-opacity="1" fill-rule="nonzero"/><path fill="#1e1735" d="M 197.613281 95.816406 C 196.988281 94.347656 194.351562 94.925781 194.929688 96.921875 C 195.515625 98.917969 198.613281 98.175781 197.613281 95.816406 " fill-opacity="1" fill-rule="nonzero"/><path fill="#1e1735" d="M 211.011719 95.039062 C 211.035156 94.589844 211.128906 94.160156 211.320312 93.839844 C 211.515625 93.515625 211.789062 93.339844 212.121094 93.257812 C 212.285156 93.214844 212.464844 93.195312 212.652344 93.1875 C 212.742188 93.183594 212.835938 93.1875 212.933594 93.191406 C 213.03125 93.195312 213.132812 93.199219 213.234375 93.207031 C 213.636719 93.242188 214.050781 93.300781 214.464844 93.367188 C 215.292969 93.503906 216.128906 93.671875 216.980469 93.828125 C 217.832031 93.984375 218.691406 94.144531 219.59375 94.226562 C 219.230469 93.953125 218.839844 93.726562 218.449219 93.515625 C 218.054688 93.308594 217.648438 93.125 217.234375 92.960938 C 216.402344 92.632812 215.539062 92.382812 214.640625 92.238281 C 214.195312 92.167969 213.734375 92.128906 213.265625 92.136719 C 213.144531 92.140625 213.03125 92.144531 212.90625 92.152344 C 212.785156 92.160156 212.660156 92.179688 212.535156 92.199219 C 212.289062 92.242188 212.035156 92.320312 211.792969 92.433594 C 211.554688 92.554688 211.324219 92.71875 211.152344 92.9375 C 210.972656 93.148438 210.859375 93.402344 210.804688 93.652344 C 210.75 93.902344 210.753906 94.148438 210.792969 94.382812 C 210.828125 94.617188 210.902344 94.839844 211.011719 95.039062 " fill-opacity="1" fill-rule="nonzero"/><path fill="#1e1735" d="M 194.121094 97.042969 C 194.15625 96.660156 194.253906 96.300781 194.421875 96.042969 C 194.59375 95.78125 194.820312 95.65625 195.085938 95.59375 C 195.222656 95.5625 195.371094 95.554688 195.519531 95.550781 C 195.597656 95.546875 195.675781 95.550781 195.753906 95.554688 C 195.832031 95.558594 195.917969 95.566406 196.003906 95.574219 C 196.339844 95.605469 196.6875 95.65625 197.035156 95.710938 C 197.730469 95.828125 198.441406 95.960938 199.164062 96.082031 C 199.886719 96.203125 200.617188 96.316406 201.398438 96.355469 C 201.097656 96.101562 200.773438 95.902344 200.441406 95.710938 C 200.109375 95.523438 199.765625 95.359375 199.414062 95.214844 C 198.714844 94.921875 197.980469 94.703125 197.214844 94.582031 C 196.828125 94.523438 196.4375 94.488281 196.03125 94.5 C 195.929688 94.503906 195.832031 94.507812 195.726562 94.515625 C 195.621094 94.527344 195.511719 94.539062 195.40625 94.5625 C 195.1875 94.601562 194.972656 94.667969 194.761719 94.773438 C 194.550781 94.878906 194.351562 95.027344 194.199219 95.222656 C 194.046875 95.410156 193.949219 95.632812 193.90625 95.855469 C 193.863281 96.074219 193.871094 96.285156 193.910156 96.488281 C 193.949219 96.6875 194.019531 96.875 194.121094 97.042969 " fill-opacity="1" fill-rule="nonzero"/><path fill="#a33636" d="M 215.148438 112.558594 C 214.964844 112.730469 214.773438 112.886719 214.574219 113.035156 C 214.375 113.183594 214.167969 113.324219 213.960938 113.457031 C 213.539062 113.726562 213.097656 113.960938 212.644531 114.171875 C 212.191406 114.378906 211.722656 114.558594 211.242188 114.714844 C 210.761719 114.863281 210.273438 114.988281 209.777344 115.082031 C 209.652344 115.109375 209.527344 115.128906 209.40625 115.148438 C 209.28125 115.167969 209.15625 115.195312 209.03125 115.210938 L 208.65625 115.265625 C 208.53125 115.28125 208.402344 115.292969 208.277344 115.308594 L 208.085938 115.324219 L 207.898438 115.335938 C 207.769531 115.339844 207.644531 115.34375 207.515625 115.34375 C 207.390625 115.339844 207.261719 115.335938 207.136719 115.324219 L 206.945312 115.3125 L 206.757812 115.289062 L 206.382812 115.238281 C 206.257812 115.21875 206.132812 115.191406 206.007812 115.167969 C 205.761719 115.121094 205.515625 115.050781 205.277344 114.980469 C 205.152344 114.945312 205.035156 114.90625 204.914062 114.863281 C 204.796875 114.820312 204.679688 114.773438 204.5625 114.726562 C 204.445312 114.683594 204.328125 114.625 204.214844 114.570312 C 204.101562 114.515625 203.988281 114.457031 203.878906 114.394531 L 203.902344 114.304688 C 204.15625 114.292969 204.40625 114.304688 204.652344 114.308594 C 204.773438 114.308594 204.898438 114.3125 205.019531 114.316406 C 205.082031 114.320312 205.140625 114.324219 205.199219 114.324219 C 205.261719 114.328125 205.324219 114.324219 205.382812 114.328125 C 205.503906 114.332031 205.625 114.332031 205.746094 114.339844 L 205.835938 114.34375 L 206.105469 114.34375 C 206.226562 114.347656 206.34375 114.355469 206.464844 114.355469 L 206.820312 114.355469 L 207 114.359375 L 207.175781 114.359375 C 207.292969 114.359375 207.414062 114.363281 207.53125 114.367188 C 207.648438 114.367188 207.765625 114.371094 207.886719 114.375 L 208.066406 114.378906 L 208.242188 114.382812 C 208.714844 114.398438 209.191406 114.386719 209.667969 114.339844 C 210.144531 114.296875 210.613281 114.214844 211.082031 114.113281 C 211.550781 114.015625 212.015625 113.890625 212.472656 113.738281 C 212.929688 113.585938 213.378906 113.40625 213.816406 113.199219 C 214.035156 113.097656 214.253906 112.988281 214.464844 112.871094 C 214.675781 112.753906 214.886719 112.628906 215.085938 112.488281 L 215.148438 112.558594 " fill-opacity="1" fill-rule="nonzero"/><path fill="#1e1735" d="M 218.117188 63.816406 C 218.117188 63.816406 217.882812 63.894531 217.652344 64.011719 C 216.203125 64.765625 214.871094 67.515625 214.546875 70.929688 C 214.390625 72.617188 214.457031 73.851562 214.738281 75.421875 C 216.070312 82.878906 225.277344 83 228.21875 90.140625 C 230.703125 96.171875 232.851562 92.835938 233.507812 90.375 C 236.355469 79.761719 237.195312 71.472656 222.183594 64.171875 C 221.234375 63.710938 219.171875 63.480469 218.117188 63.816406 " fill-opacity="1" fill-rule="nonzero"/><path fill="#1e1735" d="M 216.046875 63.796875 C 214.523438 63.15625 205.035156 57.917969 195.472656 68.25 C 190.125 74.027344 190.882812 84.214844 191.121094 87.316406 C 191.304688 89.738281 193.09375 91.257812 193.375 91.273438 C 193.890625 91.296875 190.15625 82.410156 208.34375 76.988281 C 213.507812 75.445312 215.3125 71.957031 215.726562 71.535156 C 217.140625 70.078125 219.117188 67.140625 218.078125 65.246094 C 217.652344 64.46875 216.871094 64.140625 216.046875 63.796875 " fill-opacity="1" fill-rule="nonzero"/><path fill="#f79556" d="M 231.03125 92.769531 C 231.554688 91.796875 233.058594 90.109375 235.285156 91.535156 C 237.511719 92.957031 237.386719 95.285156 236.851562 98.609375 C 236.320312 101.9375 234.058594 105.835938 232.15625 106.382812 C 230.253906 106.933594 230.246094 105.652344 229.871094 103.992188 C 229.496094 102.332031 229.707031 95.234375 231.03125 92.769531 " fill-opacity="1" fill-rule="nonzero"/><path fill="#686bea" d="M 230.207031 98.539062 C 230.207031 109.113281 223.90625 118.613281 216.28125 118.613281 C 215.777344 118.613281 215.277344 118.574219 214.78125 118.5 C 214.78125 118.480469 214.789062 118.460938 214.789062 118.441406 C 214.789062 117.386719 213.398438 116.535156 211.6875 116.535156 C 209.976562 116.535156 208.585938 117.386719 208.585938 118.441406 C 208.585938 119.492188 209.976562 120.347656 211.6875 120.347656 C 212.796875 120.347656 213.765625 119.988281 214.316406 119.449219 C 215.117188 119.65625 216.011719 119.738281 217.042969 119.738281 C 225.71875 119.738281 233.0625 110.800781 233.0625 98.988281 L 230.207031 98.539062 " fill-opacity="1" fill-rule="nonzero"/><path fill="#686bea" d="M 201.261719 63.421875 L 201.359375 63.335938 C 201.808594 62.9375 204.300781 60.828125 210.042969 60.777344 C 224.351562 60.644531 234.964844 72.898438 234.964844 88.929688 L 231.910156 89.539062 C 231.910156 75.191406 221.042969 62.003906 208.820312 61.851562 C 204.335938 61.792969 202.164062 62.808594 201.261719 63.429688 L 201.261719 63.421875 " fill-opacity="1" fill-rule="nonzero"/><path fill="#ffffff" d="M 239.179688 98.019531 C 239.179688 101.433594 237.679688 108.210938 236.410156 109.191406 C 234.867188 110.378906 232.566406 109.871094 232.1875 109.722656 C 229.945312 108.863281 228.257812 104.484375 228.257812 98.019531 C 228.257812 91.554688 229.839844 86.796875 232.1875 86.316406 C 232.414062 86.269531 235.511719 85.484375 236.757812 87.140625 C 238.789062 89.84375 239.179688 94.214844 239.179688 98.019531 " fill-opacity="1" fill-rule="nonzero"/><path fill="#d6d0a9" d="M 239.253906 98.023438 C 239.253906 104.488281 237.492188 109.726562 235.320312 109.726562 C 233.148438 109.726562 231.386719 104.488281 231.386719 98.023438 C 231.386719 91.5625 233.148438 86.320312 235.320312 86.320312 C 237.492188 86.320312 239.253906 91.5625 239.253906 98.023438 " fill-opacity="1" fill-rule="nonzero"/><path fill="#686bea" d="M 238.902344 98.023438 C 238.902344 103.65625 237.40625 108.21875 235.566406 108.21875 C 233.722656 108.21875 232.226562 103.65625 232.226562 98.023438 C 232.226562 92.394531 233.722656 87.828125 235.566406 87.828125 C 237.40625 87.828125 238.902344 92.394531 238.902344 98.023438 " fill-opacity="1" fill-rule="nonzero"/><path fill="#d66730" d="M 250.210938 113.007812 C 249.882812 110.28125 248.648438 108.121094 248.382812 105.390625 C 248.367188 105.210938 248.351562 104.550781 247.871094 104.066406 C 246.707031 102.890625 244.003906 102.210938 241.210938 100.242188 C 240.90625 100.03125 239.140625 98.488281 238.585938 98.71875 C 238.097656 98.921875 237.574219 99.507812 237.601562 100.113281 C 237.617188 100.46875 237.394531 101.734375 238.816406 102.929688 C 241.191406 104.917969 244.113281 106.085938 244.445312 106.503906 C 244.960938 107.15625 244.226562 109.085938 244.125 109.875 C 243.308594 116.179688 246.566406 117.765625 245.882812 120.464844 C 245.746094 121.007812 245.367188 121.855469 244.667969 122.050781 C 243.726562 122.316406 243.011719 121.941406 240.359375 120.363281 C 239.902344 120.09375 234.308594 116.8125 232.882812 118.378906 C 232.375 118.933594 232.722656 120.066406 233.316406 120.546875 C 233.808594 120.945312 235.566406 122.222656 237.3125 123.265625 C 239.828125 124.765625 240.359375 125.046875 241.3125 125.984375 C 242.277344 126.9375 242.082031 126.554688 243.03125 128.0625 C 244.460938 130.335938 246.460938 131.484375 247.542969 132.105469 C 249.367188 133.152344 252.207031 133.449219 253.679688 132.476562 C 255.097656 131.539062 254.566406 129.988281 254.03125 126.554688 C 252.878906 119.167969 250.925781 118.902344 250.210938 113.007812 " fill-opacity="1" fill-rule="nonzero"/><path fill="#f79556" d="M 237.585938 114.09375 C 237.25 114 236.746094 113.847656 236.0625 113.878906 C 235.378906 113.90625 234.945312 114.097656 233.984375 114.472656 C 231.644531 115.382812 231.863281 115.164062 231.410156 115.441406 C 230.242188 116.152344 230.402344 116.621094 229.148438 117.335938 C 228.554688 117.675781 227.023438 118.21875 225.636719 117.066406 C 225.140625 116.652344 225.546875 115.882812 225.605469 115.734375 C 225.777344 115.273438 226.042969 115.160156 227.152344 114.179688 C 227.980469 113.449219 228.28125 113.121094 228.207031 112.996094 C 228.160156 112.917969 226.871094 113.03125 227.023438 111.945312 C 227.097656 111.429688 227.503906 111.058594 228.109375 110.546875 C 230.210938 108.769531 230.460938 108.222656 231.859375 107.53125 C 232.054688 107.433594 232.652344 107.09375 233.9375 106.9375 C 237.320312 106.527344 239.285156 105.484375 240.703125 106.113281 C 242.164062 106.761719 251.09375 110.960938 251.707031 111.421875 C 252.722656 112.195312 253.019531 113.378906 253.140625 113.839844 C 254.050781 117.390625 255.832031 122.40625 256.851562 125.132812 C 257.152344 125.9375 257.765625 128.664062 257.433594 130.160156 C 257.078125 131.765625 256.210938 133.40625 254.332031 133.714844 C 251.605469 134.164062 249.5 132.355469 249.238281 132.113281 C 248.265625 131.21875 247.882812 130.238281 247.117188 128.273438 C 245.773438 124.816406 246 123.066406 244.652344 122.167969 C 244.542969 122.097656 243.664062 121.523438 242.382812 120.964844 C 241.933594 120.769531 241.710938 120.671875 241.542969 120.625 C 239.824219 120.152344 237.183594 120.578125 236.886719 120.636719 C 236.46875 120.722656 235.152344 121.800781 231.425781 123.191406 C 230.945312 123.371094 228.855469 124.160156 228.105469 123.167969 C 227.773438 122.726562 228.03125 122.082031 228.042969 122.054688 C 228.339844 121.304688 229.214844 121.085938 229.992188 120.777344 C 232.214844 119.898438 231.996094 118.964844 234.644531 117.664062 C 235.496094 117.246094 236.207031 116.945312 237.21875 116.699219 C 240.664062 115.851562 242.683594 117.246094 243.023438 116.40625 C 243.285156 115.761719 240.957031 115.035156 237.585938 114.09375 " fill-opacity="1" fill-rule="nonzero"/><path fill="#d66730" d="M 245.839844 112.152344 C 244.445312 111.386719 243.019531 110.695312 241.578125 110.035156 C 240.859375 109.699219 240.128906 109.390625 239.398438 109.078125 C 239.027344 108.925781 238.667969 108.777344 238.253906 108.652344 C 237.839844 108.527344 237.402344 108.464844 236.960938 108.484375 C 236.75 108.488281 236.484375 108.542969 236.289062 108.601562 C 236.089844 108.660156 235.898438 108.726562 235.707031 108.792969 C 235.328125 108.925781 234.953125 109.0625 234.585938 109.207031 C 233.847656 109.507812 233.113281 109.800781 232.390625 110.117188 L 231.296875 110.566406 C 230.886719 110.738281 230.554688 110.992188 230.246094 111.246094 C 229.632812 111.769531 229.09375 112.335938 228.453125 112.808594 C 229.183594 112.480469 229.816406 111.96875 230.472656 111.546875 C 230.796875 111.335938 231.128906 111.140625 231.464844 111.042969 C 231.851562 110.933594 232.222656 110.800781 232.601562 110.675781 C 233.355469 110.429688 234.09375 110.148438 234.839844 109.890625 C 235.214844 109.761719 235.582031 109.625 235.949219 109.503906 C 236.136719 109.445312 236.320312 109.382812 236.5 109.335938 C 236.6875 109.285156 236.808594 109.257812 236.996094 109.253906 C 237.347656 109.230469 237.699219 109.277344 238.046875 109.371094 C 238.390625 109.46875 238.765625 109.625 239.132812 109.753906 L 241.347656 110.589844 C 242.828125 111.140625 244.320312 111.683594 245.839844 112.152344 " fill-opacity="1" fill-rule="nonzero"/><path fill="#ec7d40" d="M 151.714844 166.71875 C 151.714844 166.71875 150.519531 160.933594 148.976562 158.761719 C 147.4375 156.589844 146.367188 155.117188 143.472656 153.035156 C 140.574219 150.949219 136.480469 147.023438 135.40625 146.265625 C 134.070312 145.320312 133.117188 145.023438 132.25 145.625 C 131.382812 146.230469 131.574219 147.261719 132.125 148.125 C 132.671875 148.984375 134.160156 150.609375 135.136719 151.5625 C 136.742188 153.136719 139.507812 155.183594 138.773438 154.925781 C 138.683594 154.894531 137.890625 154.484375 136.566406 153.929688 C 135.714844 153.570312 131.082031 151.507812 131.082031 151.507812 C 131.082031 151.507812 131.390625 150.554688 131.296875 149.757812 C 131.203125 148.976562 130.59375 148.320312 130.09375 148.285156 C 129.597656 148.246094 129.136719 148.417969 128.574219 149.308594 C 128.011719 150.203125 127.160156 151.726562 127.160156 151.726562 C 127.160156 151.726562 126.644531 149.171875 126.335938 147.085938 C 126.027344 144.996094 125.617188 144.085938 124.917969 143.566406 C 124.3125 143.113281 123.226562 142.960938 123.097656 143.613281 C 122.972656 144.265625 122.960938 147.449219 122.960938 147.449219 C 122.960938 147.449219 120.410156 145.164062 119.566406 144.390625 C 118.476562 143.394531 117.019531 143.160156 116.496094 143.558594 C 115.96875 143.953125 115.910156 144.613281 116.3125 145.105469 C 116.710938 145.597656 120.128906 149.464844 120.796875 150.195312 C 121.464844 150.925781 125.851562 155.671875 125.851562 155.671875 C 125.851562 155.671875 125.601562 156.367188 125.632812 157.21875 C 125.679688 158.277344 126.507812 159.210938 127.128906 159.800781 C 127.847656 160.484375 128.511719 161 128.519531 161.136719 C 128.632812 163.238281 130.570312 163.980469 130.765625 164.097656 C 130.980469 164.226562 131.066406 165.546875 137.152344 169.664062 C 138.3125 170.449219 141.308594 172.0625 142.15625 172.953125 C 143.003906 173.84375 144.972656 175.148438 146.238281 175.429688 C 147.582031 175.734375 147.929688 175.597656 148.699219 174.898438 C 149.46875 174.203125 151.847656 169.398438 151.714844 166.71875 " fill-opacity="1" fill-rule="nonzero"/><path fill="#d66730" d="M 130.992188 151.695312 C 130.789062 152.277344 130.582031 152.863281 130.398438 153.445312 C 130.355469 153.59375 130.308594 153.738281 130.269531 153.882812 L 130.152344 154.332031 C 130.066406 154.632812 129.972656 154.929688 129.886719 155.222656 C 129.800781 155.515625 129.730469 155.8125 129.675781 156.097656 C 129.625 156.386719 129.578125 156.664062 129.542969 156.945312 C 129.457031 157.503906 129.496094 158.089844 129.5 158.734375 L 129.433594 158.757812 C 129.25 158.488281 129.101562 158.199219 129.007812 157.886719 L 128.96875 157.765625 C 128.957031 157.726562 128.953125 157.6875 128.941406 157.648438 C 128.921875 157.566406 128.90625 157.484375 128.890625 157.402344 C 128.882812 157.320312 128.875 157.238281 128.863281 157.15625 C 128.859375 157.113281 128.859375 157.070312 128.855469 157.03125 L 128.855469 156.90625 C 128.855469 156.570312 128.914062 156.238281 129.019531 155.925781 C 129.125 155.621094 129.25 155.328125 129.367188 155.039062 C 129.484375 154.753906 129.605469 154.46875 129.71875 154.183594 L 129.890625 153.753906 C 129.949219 153.609375 130.011719 153.464844 130.078125 153.324219 C 130.34375 152.757812 130.625 152.207031 130.929688 151.667969 L 130.992188 151.695312 " fill-opacity="1" fill-rule="nonzero"/><path fill="#d66730" d="M 129.3125 160.46875 C 129.402344 160.089844 129.527344 159.722656 129.6875 159.367188 C 129.769531 159.1875 129.859375 159.015625 129.96875 158.847656 C 130.027344 158.765625 130.082031 158.679688 130.144531 158.609375 C 130.207031 158.53125 130.269531 158.453125 130.332031 158.382812 C 130.839844 157.796875 131.375 157.242188 131.910156 156.6875 C 132.449219 156.136719 132.996094 155.59375 133.550781 155.058594 C 133.832031 154.789062 134.109375 154.527344 134.40625 154.265625 C 134.425781 154.25 134.441406 154.230469 134.460938 154.214844 L 134.585938 154.113281 L 134.601562 154.101562 C 134.609375 154.097656 134.617188 154.09375 134.621094 154.085938 L 134.664062 154.0625 C 134.71875 154.023438 134.78125 153.996094 134.839844 153.96875 C 134.898438 153.949219 134.960938 153.925781 135.023438 153.914062 C 135.089844 153.894531 135.152344 153.890625 135.214844 153.882812 C 135.277344 153.882812 135.34375 153.882812 135.40625 153.890625 C 135.46875 153.894531 135.53125 153.90625 135.59375 153.917969 C 135.65625 153.9375 135.71875 153.957031 135.777344 153.984375 C 135.898438 154.035156 136.015625 154.101562 136.113281 154.203125 C 136.214844 154.300781 136.300781 154.425781 136.351562 154.566406 C 136.394531 154.683594 136.417969 154.800781 136.433594 154.910156 C 136.445312 154.96875 136.449219 155.019531 136.457031 155.078125 C 136.457031 155.132812 136.460938 155.183594 136.464844 155.238281 C 136.476562 155.667969 136.414062 156.082031 136.308594 156.488281 C 136.25 156.6875 136.183594 156.886719 136.101562 157.078125 C 136.082031 157.125 136.054688 157.175781 136.03125 157.226562 L 135.992188 157.300781 L 135.953125 157.371094 C 135.925781 157.417969 135.902344 157.464844 135.875 157.507812 L 135.789062 157.640625 C 135.734375 157.726562 135.671875 157.808594 135.613281 157.890625 C 135.550781 157.96875 135.492188 158.050781 135.429688 158.128906 C 135.304688 158.28125 135.175781 158.433594 135.046875 158.578125 C 134.914062 158.722656 134.78125 158.867188 134.652344 159.007812 L 134.253906 159.421875 C 134.121094 159.5625 133.988281 159.699219 133.863281 159.835938 C 133.796875 159.902344 133.738281 159.972656 133.671875 160.042969 C 133.621094 160.109375 133.5625 160.171875 133.515625 160.238281 C 133.421875 160.375 133.34375 160.523438 133.285156 160.6875 C 133.226562 160.851562 133.183594 161.035156 133.132812 161.226562 C 133.078125 161.417969 133.015625 161.613281 132.925781 161.792969 C 132.878906 161.882812 132.832031 161.972656 132.777344 162.054688 C 132.722656 162.140625 132.65625 162.214844 132.597656 162.292969 L 132.53125 162.25 C 132.605469 162.074219 132.667969 161.898438 132.707031 161.714844 C 132.746094 161.535156 132.765625 161.355469 132.777344 161.167969 C 132.789062 160.976562 132.796875 160.78125 132.835938 160.574219 C 132.871094 160.367188 132.9375 160.152344 133.039062 159.960938 C 133.085938 159.859375 133.144531 159.769531 133.203125 159.679688 C 133.257812 159.597656 133.316406 159.515625 133.371094 159.433594 C 133.488281 159.273438 133.609375 159.121094 133.726562 158.96875 L 134.445312 158.070312 C 134.503906 158 134.5625 157.925781 134.621094 157.851562 C 134.675781 157.777344 134.734375 157.703125 134.789062 157.628906 L 134.953125 157.40625 C 135.003906 157.332031 135.058594 157.261719 135.109375 157.1875 C 135.210938 157.039062 135.292969 156.894531 135.367188 156.746094 C 135.441406 156.589844 135.507812 156.425781 135.5625 156.261719 C 135.679688 155.929688 135.753906 155.578125 135.769531 155.238281 C 135.773438 155.070312 135.761719 154.902344 135.726562 154.777344 C 135.714844 154.734375 135.691406 154.695312 135.660156 154.65625 C 135.625 154.617188 135.574219 154.582031 135.519531 154.554688 C 135.492188 154.542969 135.464844 154.53125 135.433594 154.519531 C 135.402344 154.515625 135.371094 154.503906 135.339844 154.5 C 135.304688 154.492188 135.273438 154.496094 135.242188 154.492188 C 135.210938 154.496094 135.175781 154.496094 135.144531 154.503906 C 135.113281 154.503906 135.085938 154.515625 135.054688 154.523438 C 135.027344 154.535156 134.996094 154.546875 134.972656 154.5625 L 134.953125 154.574219 C 134.949219 154.574219 134.949219 154.578125 134.945312 154.578125 L 134.929688 154.589844 L 134.878906 154.625 L 134.828125 154.664062 C 134.8125 154.675781 134.792969 154.691406 134.773438 154.707031 C 134.484375 154.941406 134.191406 155.191406 133.902344 155.441406 C 133.324219 155.941406 132.75 156.453125 132.183594 156.96875 C 131.613281 157.484375 131.046875 158.003906 130.511719 158.546875 C 130.441406 158.613281 130.382812 158.683594 130.316406 158.753906 C 130.25 158.820312 130.195312 158.890625 130.136719 158.960938 C 130.027344 159.113281 129.929688 159.273438 129.835938 159.441406 C 129.65625 159.773438 129.503906 160.125 129.390625 160.488281 L 129.3125 160.46875 " fill-opacity="1" fill-rule="nonzero"/><path fill="#d66730" d="M 122.972656 147.582031 C 123.066406 147.976562 123.152344 148.371094 123.242188 148.765625 L 123.371094 149.355469 C 123.410156 149.550781 123.453125 149.746094 123.496094 149.941406 C 123.539062 150.136719 123.59375 150.332031 123.648438 150.523438 C 123.699219 150.71875 123.734375 150.910156 123.746094 151.109375 L 123.753906 151.257812 C 123.757812 151.308594 123.761719 151.359375 123.761719 151.410156 C 123.761719 151.507812 123.765625 151.609375 123.761719 151.710938 C 123.753906 151.8125 123.753906 151.910156 123.746094 152.015625 C 123.734375 152.117188 123.730469 152.21875 123.710938 152.332031 L 123.644531 152.355469 C 123.605469 152.316406 123.570312 152.273438 123.535156 152.226562 C 123.5 152.183594 123.46875 152.140625 123.441406 152.09375 C 123.382812 152.003906 123.328125 151.910156 123.285156 151.8125 C 123.242188 151.71875 123.199219 151.621094 123.164062 151.523438 C 123.144531 151.476562 123.128906 151.425781 123.113281 151.378906 L 123.066406 151.230469 C 123.015625 151.03125 122.980469 150.832031 122.972656 150.628906 C 122.964844 150.421875 122.964844 150.21875 122.949219 150.015625 C 122.9375 149.816406 122.925781 149.613281 122.917969 149.410156 L 122.898438 148.804688 C 122.894531 148.398438 122.890625 147.996094 122.90625 147.589844 L 122.972656 147.582031 " fill-opacity="1" fill-rule="nonzero"/><path fill="#d66730" d="M 127.128906 151.835938 C 127.085938 152.113281 127.035156 152.382812 126.988281 152.65625 C 126.9375 152.929688 126.886719 153.199219 126.832031 153.464844 C 126.800781 153.601562 126.789062 153.738281 126.773438 153.875 C 126.753906 154.011719 126.714844 154.140625 126.660156 154.265625 C 126.601562 154.390625 126.535156 154.511719 126.453125 154.628906 C 126.414062 154.6875 126.371094 154.746094 126.320312 154.804688 C 126.296875 154.832031 126.273438 154.859375 126.242188 154.890625 C 126.21875 154.917969 126.1875 154.945312 126.15625 154.972656 L 126.085938 154.957031 C 126.023438 154.804688 125.996094 154.652344 125.984375 154.503906 C 125.972656 154.359375 125.980469 154.214844 126 154.074219 C 126.007812 154.003906 126.023438 153.9375 126.042969 153.871094 C 126.0625 153.804688 126.089844 153.738281 126.121094 153.675781 C 126.183594 153.550781 126.25 153.425781 126.304688 153.300781 C 126.417969 153.046875 126.535156 152.792969 126.664062 152.546875 C 126.789062 152.300781 126.917969 152.054688 127.0625 151.8125 L 127.128906 151.835938 " fill-opacity="1" fill-rule="nonzero"/><path fill="#ec7d40" d="M 160.855469 209.761719 C 165.546875 207.429688 170.109375 202.039062 169.796875 197.480469 C 169.789062 197.390625 169.804688 197.304688 169.835938 197.222656 C 168.539062 195.457031 166.972656 193.660156 165.09375 191.851562 C 157.9375 184.949219 155.050781 173.984375 152.4375 168.300781 C 149.820312 162.617188 139.453125 159.273438 140.570312 166.320312 C 141.683594 173.371094 144.429688 178.164062 146.800781 185.273438 C 149.050781 192.03125 151.445312 201.585938 154.554688 210.015625 C 155.882812 211.183594 158.160156 211.097656 160.855469 209.761719 " fill-opacity="1" fill-rule="nonzero"/><path fill="#fccc44" d="M 188.457031 226.460938 L 82.210938 226.460938 L 82.210938 221.53125 L 184.621094 221.53125 C 185.335938 221.53125 187.835938 224.835938 187.835938 224.835938 C 188.390625 225.476562 187.914062 226.445312 186.992188 226.457031 C 186.984375 226.457031 188.464844 226.460938 188.457031 226.460938 " fill-opacity="1" fill-rule="nonzero"/><path fill="#fccc44" d="M 130.496094 226.460938 L 66.792969 226.460938 C 63.382812 226.460938 60.382812 224.191406 59.460938 220.910156 L 40.367188 153.117188 C 39.734375 150.863281 41.429688 148.625 43.773438 148.625 L 108.390625 148.625 C 111.832031 148.625 114.855469 150.914062 115.785156 154.222656 L 134.605469 221.042969 C 135.371094 223.761719 133.324219 226.460938 130.496094 226.460938 " fill-opacity="1" fill-rule="nonzero"/><path fill="#1e1735" d="M 130.230469 226.460938 L 66.261719 226.460938 C 62.886719 226.460938 59.921875 224.21875 59.011719 220.972656 L 40.035156 153.59375 C 39.585938 152.003906 40.785156 150.425781 42.4375 150.425781 L 106.410156 150.425781 C 109.785156 150.425781 112.75 152.667969 113.660156 155.910156 L 132.636719 223.289062 C 133.085938 224.878906 131.886719 226.460938 130.230469 226.460938 " fill-opacity="1" fill-rule="nonzero"/><path fill="#1e1735" d="M 42.101562 236.238281 L 325.007812 236.238281 C 327.683594 236.238281 329.851562 234.066406 329.851562 231.394531 C 329.851562 228.71875 327.683594 226.554688 325.007812 226.554688 L 42.101562 226.554688 C 39.421875 226.554688 37.253906 228.71875 37.253906 231.394531 C 37.253906 234.066406 39.421875 236.238281 42.101562 236.238281 " fill-opacity="1" fill-rule="nonzero"/><path fill="#686bea" d="M 116.8125 134.117188 C 87.328125 134.117188 63.339844 110.15625 63.339844 80.703125 C 63.339844 51.253906 87.328125 27.292969 116.8125 27.292969 C 146.296875 27.292969 170.28125 51.253906 170.28125 80.703125 C 170.28125 95.011719 164.703125 108.433594 154.558594 118.527344 L 156.761719 130.246094 L 145.804688 125.585938 C 137.160156 131.167969 127.144531 134.117188 116.8125 134.117188 " fill-opacity="1" fill-rule="nonzero"/><path fill="#ffffff" d="M 90.328125 89.269531 L 90.328125 85.265625 L 96.535156 81.140625 C 98.367188 79.921875 99.609375 78.835938 100.226562 77.910156 C 100.828125 77.007812 101.132812 76.175781 101.132812 75.445312 C 101.132812 74.558594 100.851562 73.835938 100.265625 73.238281 C 99.6875 72.640625 98.945312 72.347656 98.007812 72.347656 C 95.945312 72.347656 94.789062 73.59375 94.472656 76.152344 L 94.425781 76.554688 L 90.285156 75.523438 L 90.332031 75.203125 C 90.601562 73.375 91.425781 71.792969 92.773438 70.496094 C 94.136719 69.1875 95.933594 68.523438 98.125 68.523438 C 100.386719 68.523438 102.230469 69.183594 103.59375 70.480469 C 104.964844 71.78125 105.660156 73.457031 105.660156 75.457031 C 105.660156 77.226562 105.042969 78.824219 103.835938 80.210938 C 102.742188 81.457031 100.277344 83.183594 96.3125 85.472656 L 105.601562 85.472656 L 105.601562 89.269531 L 90.328125 89.269531 " fill-opacity="1" fill-rule="nonzero"/><path fill="#ffffff" d="M 115.398438 81.085938 L 115.398438 76 C 115.398438 75.410156 115.429688 74.867188 115.488281 74.394531 L 115.523438 74.007812 L 111.070312 81.085938 Z M 115.398438 89.320312 L 115.398438 84.839844 L 106.632812 84.839844 L 106.632812 81.773438 L 115.566406 68.472656 L 119.777344 68.472656 L 119.777344 81.085938 L 122.742188 81.085938 L 122.742188 84.839844 L 119.777344 84.839844 L 119.777344 89.320312 L 115.398438 89.320312 " fill-opacity="1" fill-rule="nonzero"/><path fill="#ffffff" d="M 120.621094 95.703125 L 133.484375 62.089844 L 137.074219 62.089844 L 124.132812 95.703125 L 120.621094 95.703125 " fill-opacity="1" fill-rule="nonzero"/><path fill="#ffffff" d="M 140.09375 89.117188 L 140.113281 88.738281 C 140.4375 82.566406 142.742188 77.085938 146.964844 72.441406 L 136.097656 72.441406 L 136.472656 68.675781 L 151.175781 68.675781 L 151.175781 71.671875 L 151.101562 71.769531 C 148.707031 74.875 147.097656 77.59375 146.316406 79.859375 C 145.535156 82.128906 145.058594 85.128906 144.894531 88.773438 L 144.882812 89.117188 L 140.09375 89.117188 " fill-opacity="1" fill-rule="nonzero"/><path fill="#ffffff" d="M 147.953125 91.308594 C 142.074219 108.328125 123.429688 117.394531 106.390625 111.523438 C 89.355469 105.648438 80.277344 87.027344 86.15625 70.007812 C 91.90625 53.355469 109.882812 44.316406 126.617188 49.4375 L 124.269531 56.226562 L 144.546875 51.535156 L 131.492188 35.328125 L 129.179688 42.023438 C 124.347656 40.507812 119.355469 39.910156 114.320312 40.25 C 109.089844 40.605469 104.039062 41.953125 99.308594 44.253906 C 94.578125 46.554688 90.402344 49.695312 86.894531 53.589844 C 83.265625 57.621094 80.519531 62.285156 78.734375 67.449219 C 76.949219 72.617188 76.234375 77.976562 76.601562 83.390625 C 76.957031 88.613281 78.304688 93.65625 80.609375 98.382812 C 82.914062 103.109375 86.058594 107.28125 89.953125 110.78125 C 93.992188 114.410156 98.660156 117.152344 103.832031 118.933594 C 109.003906 120.71875 114.371094 121.433594 119.789062 121.066406 C 125.015625 120.710938 130.066406 119.363281 134.800781 117.0625 C 139.53125 114.761719 143.707031 111.621094 147.214844 107.726562 C 150.84375 103.695312 153.589844 99.03125 155.371094 93.867188 L 147.953125 91.308594 " fill-opacity="1" fill-rule="nonzero"/></svg>