<svg xmlns="http://www.w3.org/2000/svg" xmlns:xlink="http://www.w3.org/1999/xlink" width="1280" zoomAndPan="magnify" viewBox="0 0 960 599.999999" height="800" preserveAspectRatio="xMidYMid meet" version="1.0"><defs><clipPath id="70c06b8ee7"><path d="M 501 85.101562 L 858 85.101562 L 858 514.851562 L 501 514.851562 Z M 501 85.101562 " clip-rule="nonzero"/></clipPath></defs><rect x="-96" width="1152" fill="#ffffff" y="-60" height="719.999999" fill-opacity="1"/><rect x="-96" width="1152" fill="#ffffff" y="-60" height="719.999999" fill-opacity="1"/><path fill="#ff7d5c" d="M 577.152344 130.308594 C 577.152344 153.390625 577.152344 447.429688 577.152344 465.898438 C 577.152344 484.367188 580.847656 491.753906 606.699219 493.597656 C 632.554688 495.445312 753.46875 495.160156 770.648438 493.597656 C 800.09375 490.921875 800.09375 474.207031 800.09375 457.585938 C 800.09375 440.96875 800.546875 138.734375 798.703125 123.039062 C 796.855469 107.339844 777.464844 108.265625 760.84375 108.265625 C 744.222656 108.265625 614.046875 109.5 592.902344 108.796875 C 586.378906 108.582031 577.152344 114.609375 577.152344 130.308594 Z M 577.152344 130.308594 " fill-opacity="1" fill-rule="nonzero"/><path fill="#000000" d="M 578.121094 130.308594 C 577.847656 177.777344 579.441406 229.871094 579.519531 277.527344 C 579.507812 312.980469 578.882812 352.289062 578.625 387.941406 C 578.605469 406.238281 578.410156 443.246094 578.390625 461.554688 C 578.433594 467.546875 578.101562 473.738281 579.859375 479.441406 C 583.59375 491.609375 599.601562 491.75 610.238281 492.632812 C 628.585938 493.5 647 493.59375 665.375 493.796875 C 696.035156 493.9375 726.707031 493.980469 757.347656 493.09375 C 763.46875 492.847656 769.605469 492.800781 775.53125 491.792969 C 778.015625 491.304688 781.796875 490.414062 784.152344 489.445312 C 784.152344 489.445312 786.15625 488.519531 786.15625 488.519531 C 786.488281 488.363281 786.832031 488.222656 787.15625 488.050781 C 788.046875 487.476562 789.042969 486.886719 789.910156 486.289062 C 792.714844 484.042969 795.054688 481.207031 796.367188 477.816406 C 797.398438 475.101562 797.964844 472.191406 798.285156 469.230469 C 798.285156 469.230469 798.40625 174.96875 798.40625 174.96875 C 798.371094 159.730469 798.289062 144.234375 797.980469 128.992188 C 797.980469 128.992188 797.769531 124.460938 797.769531 124.460938 C 797.742188 116.207031 791.429688 111.71875 783.777344 110.332031 C 773.578125 108.320312 757.78125 109.253906 747.222656 109.039062 C 723.921875 109.058594 660.921875 109.464844 636.808594 109.617188 C 623.019531 109.636719 609.183594 109.730469 595.386719 109.507812 C 592.511719 109.40625 589.347656 109.433594 586.8125 111.042969 C 580.050781 114.828125 577.910156 123.011719 578.121094 130.308594 Z M 576.183594 130.308594 C 576.292969 119.175781 582.535156 106.738281 595.417969 108.195312 C 622.515625 108.667969 682.484375 108.066406 710.410156 108.011719 C 722.484375 107.914062 753.914062 107.53125 765.621094 107.464844 C 776.886719 107.671875 794.355469 106.46875 798.941406 119.539062 C 799.855469 122.125 799.867188 126.195312 800.039062 128.917969 C 801.679688 189.617188 801.53125 260.960938 801.90625 322.175781 C 802.0625 354.953125 801.980469 399.816406 801.75 432.59375 C 801.75 432.59375 801.621094 450.996094 801.621094 450.996094 C 801.273438 463 803.148438 477.746094 793.273438 486.757812 C 783.535156 495.179688 769.496094 494.914062 757.410156 495.273438 C 714.453125 496.015625 671.5 496.09375 628.546875 495.5 C 615.359375 494.832031 593.632812 496.324219 582.996094 488.28125 C 575.082031 481.875 576.058594 470.648438 575.914062 461.554688 C 575.914062 461.554688 575.804688 424.746094 575.804688 424.746094 C 575.914062 376.992188 574.757812 325.097656 574.785156 277.527344 C 574.945312 229.84375 576.378906 177.828125 576.183594 130.308594 Z M 576.183594 130.308594 " fill-opacity="1" fill-rule="nonzero"/><path fill="#000000" d="M 567.976562 128.511719 C 567.976562 151.59375 567.976562 445.632812 567.976562 464.101562 C 567.976562 482.570312 571.671875 489.957031 597.523438 491.800781 C 623.378906 493.648438 744.292969 493.363281 761.472656 491.800781 C 790.914062 489.125 790.914062 472.410156 790.914062 455.792969 C 790.914062 439.171875 791.371094 136.9375 789.523438 121.242188 C 787.679688 105.546875 768.289062 106.46875 751.667969 106.46875 C 735.046875 106.46875 604.871094 107.703125 583.726562 107 C 577.203125 106.785156 567.976562 112.816406 567.976562 128.511719 Z M 567.976562 128.511719 " fill-opacity="1" fill-rule="nonzero"/><g clip-path="url(#70c06b8ee7)"><path stroke-linecap="butt" transform="matrix(1.183588, 0, 0, 1.183588, 679.674043, 299.59656)" fill="none" stroke-linejoin="miter" d="M -94.371929 -144.547633 C -94.371929 -125.045888 -94.371929 123.384366 -94.371929 138.988402 C -94.371929 154.592439 -91.249802 160.833393 -69.408111 162.391157 C -47.56312 163.95222 54.595794 163.711295 69.110716 162.391157 C 93.985425 160.130419 93.985425 146.008238 93.985425 131.968566 C 93.985425 117.925593 94.371565 -137.428787 92.810501 -150.689577 C 91.252738 -163.950368 74.86982 -163.171486 60.826847 -163.171486 C 46.783874 -163.171486 -63.20016 -162.128577 -81.064933 -162.722639 C -86.576511 -162.904158 -94.371929 -157.808424 -94.371929 -144.547633 Z M -94.371929 -144.547633 " stroke="#000000" stroke-width="4" stroke-opacity="1" stroke-miterlimit="10"/></g><path fill="#ffffff" d="M 588.839844 153.855469 C 588.839844 172.617188 588.839844 414.304688 588.839844 429.316406 C 588.839844 444.328125 591.464844 452.871094 612.859375 451.832031 C 633.902344 450.808594 732.105469 451.601562 746.125 451.832031 C 770.101562 452.226562 770.0625 445.960938 770.0625 422.5625 C 770.0625 409.050781 770.429688 160.703125 768.929688 147.945312 C 767.429688 135.183594 751.667969 135.9375 738.15625 135.9375 C 724.648438 135.9375 618.832031 136.941406 601.644531 136.367188 C 596.339844 136.191406 588.839844 141.09375 588.839844 153.855469 Z M 588.839844 153.855469 " fill-opacity="1" fill-rule="nonzero"/><path fill="#ff7d5c" d="M 689.261719 469.964844 C 689.261719 475.371094 684.878906 479.753906 679.46875 479.753906 C 674.066406 479.753906 669.683594 475.371094 669.683594 469.964844 C 669.683594 464.558594 674.066406 460.175781 679.46875 460.175781 C 684.878906 460.175781 689.261719 464.558594 689.261719 469.964844 Z M 689.261719 469.964844 " fill-opacity="1" fill-rule="nonzero"/><path stroke-linecap="round" transform="matrix(1.183588, 0, 0, 1.183588, 487.131508, -0.484411)" fill="none" stroke-linejoin="round" d="M 145.724585 103.776114 C 145.724585 103.776114 190.671999 103.776114 198.008668 103.776114 " stroke="#ffffff" stroke-width="4.251" stroke-opacity="1" stroke-miterlimit="4"/><path stroke-linecap="round" transform="matrix(1.183588, 0, 0, 1.183588, 487.131508, -0.484411)" fill="none" stroke-linejoin="round" d="M 127.001721 103.776114 C 127.001721 103.776114 136.123878 103.776114 136.123878 103.776114 " stroke="#ffffff" stroke-width="4.251" stroke-opacity="1" stroke-miterlimit="4"/><path fill="#000000" d="M 741.195312 411.503906 C 741.195312 411.503906 617.746094 411.503906 617.746094 411.503906 C 607.945312 411.503906 600 403.558594 600 393.757812 C 600 383.957031 607.945312 376.011719 617.746094 376.011719 C 617.746094 376.011719 741.195312 376.011719 741.195312 376.011719 C 750.996094 376.011719 758.941406 383.957031 758.941406 393.757812 C 758.941406 403.558594 750.996094 411.503906 741.195312 411.503906 Z M 741.195312 411.503906 " fill-opacity="1" fill-rule="nonzero"/><path fill="#ffffff" d="M 633.371094 400.296875 C 633.046875 400.296875 632.777344 400.171875 632.558594 399.917969 C 632.339844 399.664062 632.257812 399.347656 632.316406 398.964844 C 632.316406 398.964844 634.789062 385.023438 634.789062 385.023438 C 634.855469 384.601562 635.007812 384.324219 635.242188 384.191406 C 635.472656 384.054688 635.730469 383.988281 636.011719 383.988281 C 639.238281 383.988281 641.585938 384.351562 643.058594 385.078125 C 644.527344 385.804688 645.152344 387.007812 644.925781 388.699219 C 644.828125 389.433594 644.558594 390.0625 644.125 390.601562 C 643.6875 391.136719 643.0625 391.570312 642.242188 391.910156 C 641.425781 392.246094 640.394531 392.5 639.148438 392.660156 C 637.902344 392.824219 636.421875 392.902344 634.703125 392.902344 C 634.703125 392.902344 635.039062 391.316406 635.039062 391.316406 C 636.421875 391.316406 637.558594 391.265625 638.453125 391.160156 C 639.34375 391.054688 640.054688 390.914062 640.574219 390.738281 C 641.097656 390.5625 641.484375 390.359375 641.734375 390.125 C 641.992188 389.894531 642.160156 389.644531 642.242188 389.375 C 642.328125 389.109375 642.382812 388.839844 642.410156 388.574219 C 642.46875 388.109375 642.367188 387.710938 642.105469 387.378906 C 641.847656 387.050781 641.324219 386.792969 640.542969 386.609375 C 639.761719 386.425781 638.617188 386.316406 637.109375 386.269531 C 637.109375 386.269531 635.039062 398.035156 635.039062 398.035156 C 636.53125 397.996094 637.71875 397.90625 638.601562 397.773438 C 639.480469 397.640625 640.125 397.429688 640.53125 397.148438 C 640.941406 396.867188 641.171875 396.507812 641.230469 396.070312 C 641.3125 395.464844 641.160156 394.960938 640.765625 394.5625 C 640.371094 394.160156 639.671875 393.855469 638.675781 393.652344 C 637.671875 393.449219 636.300781 393.347656 634.554688 393.347656 C 634.554688 393.347656 634.914062 391.316406 634.914062 391.316406 C 636.742188 391.316406 638.351562 391.503906 639.730469 391.878906 C 641.109375 392.25 642.160156 392.824219 642.878906 393.589844 C 643.59375 394.359375 643.875 395.332031 643.722656 396.515625 C 643.609375 397.289062 643.347656 397.929688 642.941406 398.425781 C 642.53125 398.925781 641.929688 399.308594 641.136719 399.578125 C 640.339844 399.847656 639.308594 400.035156 638.039062 400.136719 C 636.773438 400.246094 635.21875 400.296875 633.371094 400.296875 Z M 633.371094 400.296875 " fill-opacity="1" fill-rule="nonzero"/><path fill="#ffffff" d="M 648.9375 400.402344 C 648.023438 400.402344 647.339844 400 646.890625 399.199219 C 646.4375 398.394531 646.367188 397.125 646.675781 395.394531 C 646.675781 395.394531 648.535156 385.085938 648.535156 385.085938 C 648.582031 384.859375 648.71875 384.617188 648.960938 384.355469 C 649.199219 384.097656 649.515625 383.972656 649.910156 383.988281 C 650.277344 383.988281 650.574219 384.105469 650.808594 384.335938 C 651.039062 384.570312 651.121094 384.867188 651.050781 385.234375 C 651.050781 385.234375 649.191406 395.648438 649.191406 395.648438 C 649.109375 396.140625 649.050781 396.578125 649.023438 396.957031 C 648.996094 397.335938 649.027344 397.632812 649.117188 397.835938 C 649.210938 398.039062 649.382812 398.140625 649.632812 398.140625 C 650.226562 398.140625 650.832031 397.875 651.453125 397.347656 C 652.074219 396.820312 652.683594 396.0625 653.289062 395.066406 C 653.894531 394.074219 654.480469 392.871094 655.042969 391.457031 C 655.605469 390.039062 656.128906 388.445312 656.605469 386.671875 C 656.605469 386.671875 657.199219 390.535156 657.199219 390.535156 C 656.773438 392.058594 656.257812 393.429688 655.644531 394.644531 C 655.035156 395.863281 654.359375 396.902344 653.628906 397.761719 C 652.894531 398.621094 652.132812 399.273438 651.335938 399.726562 C 650.539062 400.175781 649.742188 400.402344 648.9375 400.402344 Z M 655.613281 400.296875 C 655.261719 400.296875 654.960938 400.195312 654.714844 399.988281 C 654.46875 399.785156 654.382812 399.480469 654.453125 399.070312 C 654.453125 399.070312 656.921875 384.9375 656.921875 384.9375 C 656.964844 384.65625 657.109375 384.429688 657.355469 384.253906 C 657.601562 384.078125 657.902344 383.988281 658.253906 383.988281 C 658.675781 383.988281 658.992188 384.101562 659.203125 384.328125 C 659.417969 384.550781 659.492188 384.839844 659.4375 385.191406 C 659.4375 385.191406 656.945312 399.367188 656.945312 399.367188 C 656.886719 399.675781 656.722656 399.90625 656.445312 400.0625 C 656.171875 400.21875 655.894531 400.296875 655.613281 400.296875 Z M 655.613281 400.296875 " fill-opacity="1" fill-rule="nonzero"/><path fill="#ffffff" d="M 664.234375 400.335938 C 663.835938 400.335938 663.523438 400.214844 663.292969 399.96875 C 663.058594 399.722656 662.972656 399.421875 663.027344 399.070312 C 663.027344 399.070312 664.210938 392.207031 664.210938 392.207031 C 664.210938 392.207031 661.65625 385.59375 661.65625 385.59375 C 661.597656 385.453125 661.558594 385.335938 661.539062 385.246094 C 661.515625 385.15625 661.507812 385.042969 661.507812 384.917969 C 661.507812 384.652344 661.636719 384.429688 661.898438 384.253906 C 662.160156 384.078125 662.472656 383.988281 662.839844 383.988281 C 663.105469 383.988281 663.320312 384.050781 663.480469 384.179688 C 663.644531 384.304688 663.78125 384.503906 663.894531 384.769531 C 663.894531 384.769531 666.046875 390.453125 666.046875 390.453125 C 666.046875 390.453125 665.4375 390.367188 665.4375 390.367188 C 665.4375 390.367188 669.683594 384.515625 669.683594 384.515625 C 669.792969 384.347656 669.945312 384.21875 670.136719 384.125 C 670.324219 384.035156 670.519531 383.988281 670.71875 383.988281 C 670.941406 383.988281 671.203125 384.085938 671.5 384.273438 C 671.792969 384.464844 671.941406 384.71875 671.941406 385.042969 C 671.941406 385.3125 671.84375 385.585938 671.648438 385.867188 C 671.648438 385.867188 666.746094 392.375 666.746094 392.375 C 666.746094 392.375 665.542969 399.28125 665.542969 399.28125 C 665.484375 399.550781 665.363281 399.792969 665.171875 400.011719 C 664.980469 400.230469 664.667969 400.335938 664.234375 400.335938 Z M 664.234375 400.335938 " fill-opacity="1" fill-rule="nonzero"/><path fill="#ffffff" d="M 680.097656 400.296875 C 679.746094 400.296875 679.464844 400.179688 679.253906 399.945312 C 679.039062 399.714844 678.964844 399.421875 679.019531 399.070312 C 679.019531 399.070312 681.511719 385.023438 681.511719 385.023438 C 681.582031 384.671875 681.71875 384.410156 681.925781 384.242188 C 682.128906 384.074219 682.386719 383.988281 682.695312 383.988281 C 682.949219 383.988281 683.179688 384.046875 683.390625 384.15625 C 683.601562 384.269531 683.765625 384.460938 683.875 384.726562 C 683.875 384.726562 688.441406 395.605469 688.441406 395.605469 C 688.441406 395.605469 688.144531 395.671875 688.144531 395.671875 C 688.144531 395.671875 689.898438 385.023438 689.898438 385.023438 C 689.96875 384.65625 690.128906 384.378906 690.382812 384.1875 C 690.636719 384 690.941406 383.902344 691.292969 383.902344 C 691.703125 383.902344 692 384.039062 692.191406 384.304688 C 692.378906 384.574219 692.441406 384.910156 692.367188 385.320312 C 692.367188 385.320312 689.921875 399.28125 689.921875 399.28125 C 689.863281 399.550781 689.757812 399.785156 689.601562 399.988281 C 689.445312 400.195312 689.160156 400.296875 688.738281 400.296875 C 688.425781 400.296875 688.175781 400.234375 687.984375 400.117188 C 687.796875 399.996094 687.644531 399.824219 687.53125 399.597656 C 687.53125 399.597656 682.988281 388.761719 682.988281 388.761719 C 682.988281 388.761719 683.285156 388.679688 683.285156 388.679688 C 683.285156 388.679688 681.53125 399.238281 681.53125 399.238281 C 681.476562 399.523438 681.328125 399.765625 681.089844 399.980469 C 680.851562 400.191406 680.519531 400.296875 680.097656 400.296875 Z M 680.097656 400.296875 " fill-opacity="1" fill-rule="nonzero"/><path fill="#ffffff" d="M 698.894531 400.296875 C 697.910156 400.296875 697.058594 400.109375 696.339844 399.726562 C 695.621094 399.347656 695.046875 398.796875 694.617188 398.078125 C 694.1875 397.359375 693.914062 396.492188 693.792969 395.46875 C 693.675781 394.449219 693.726562 393.304688 693.953125 392.039062 C 694.148438 390.964844 694.40625 390.003906 694.722656 389.140625 C 695.039062 388.285156 695.421875 387.535156 695.863281 386.894531 C 696.308594 386.253906 696.816406 385.71875 697.386719 385.289062 C 697.957031 384.859375 698.589844 384.535156 699.285156 384.316406 C 699.984375 384.097656 700.742188 383.988281 701.558594 383.988281 C 702.953125 383.988281 704.039062 384.253906 704.820312 384.78125 C 705.601562 385.308594 706.113281 386.0625 706.351562 387.042969 C 706.59375 388.019531 706.59375 389.199219 706.351562 390.578125 C 706.140625 391.777344 705.863281 392.878906 705.515625 393.882812 C 705.171875 394.890625 704.765625 395.792969 704.304688 396.589844 C 703.835938 397.382812 703.324219 398.058594 702.761719 398.605469 C 702.199219 399.152344 701.59375 399.574219 700.945312 399.863281 C 700.296875 400.152344 699.613281 400.296875 698.894531 400.296875 Z M 698.875 398.035156 C 699.324219 398.035156 699.761719 397.925781 700.183594 397.707031 C 700.605469 397.488281 701.003906 397.175781 701.378906 396.757812 C 701.75 396.34375 702.09375 395.839844 702.414062 395.25 C 702.730469 394.65625 703.007812 393.980469 703.246094 393.222656 C 703.484375 392.460938 703.683594 391.628906 703.835938 390.726562 C 703.964844 390.011719 704.035156 389.375 704.050781 388.828125 C 704.0625 388.277344 703.992188 387.808594 703.835938 387.421875 C 703.683594 387.035156 703.414062 386.742188 703.027344 386.542969 C 702.636719 386.347656 702.105469 386.25 701.429688 386.25 C 700.910156 386.25 700.425781 386.328125 699.984375 386.492188 C 699.539062 386.652344 699.132812 386.894531 698.757812 387.222656 C 698.386719 387.546875 698.050781 387.949219 697.753906 388.4375 C 697.460938 388.921875 697.203125 389.484375 696.984375 390.125 C 696.765625 390.765625 696.578125 391.488281 696.425781 392.289062 C 696.269531 393.175781 696.210938 393.976562 696.242188 394.6875 C 696.28125 395.398438 696.402344 396.003906 696.613281 396.503906 C 696.828125 397.003906 697.121094 397.382812 697.503906 397.644531 C 697.882812 397.90625 698.339844 398.035156 698.875 398.035156 Z M 698.875 398.035156 " fill-opacity="1" fill-rule="nonzero"/><path fill="#ffffff" d="M 711.085938 400.296875 C 710.691406 400.296875 710.371094 400.195312 710.132812 400 C 709.894531 399.804688 709.761719 399.535156 709.730469 399.199219 C 709.730469 399.199219 708.992188 385.132812 708.992188 385.132812 C 708.964844 384.765625 709.0625 384.484375 709.289062 384.285156 C 709.515625 384.089844 709.800781 383.988281 710.15625 383.988281 C 710.5625 383.988281 710.871094 384.085938 711.085938 384.273438 C 711.296875 384.464844 711.40625 384.699219 711.421875 384.984375 C 711.421875 384.984375 711.886719 395.777344 711.886719 395.777344 C 711.886719 395.777344 711.550781 395.714844 711.550781 395.714844 C 711.550781 395.714844 716.914062 384.773438 716.914062 384.773438 C 716.984375 384.617188 717.101562 384.445312 717.261719 384.261719 C 717.425781 384.078125 717.710938 383.988281 718.117188 383.988281 C 718.570312 383.988281 718.902344 384.078125 719.121094 384.253906 C 719.339844 384.429688 719.457031 384.671875 719.46875 384.984375 C 719.46875 384.984375 720.230469 395.714844 720.230469 395.714844 C 720.230469 395.714844 719.847656 395.628906 719.847656 395.628906 C 719.847656 395.628906 725.046875 384.855469 725.046875 384.855469 C 725.160156 384.628906 725.328125 384.429688 725.554688 384.253906 C 725.78125 384.078125 726.089844 383.988281 726.484375 383.988281 C 726.847656 383.988281 727.15625 384.128906 727.402344 384.402344 C 727.648438 384.675781 727.664062 385.03125 727.453125 385.46875 C 727.453125 385.46875 720.609375 399.410156 720.609375 399.410156 C 720.484375 399.691406 720.304688 399.910156 720.070312 400.0625 C 719.839844 400.21875 719.582031 400.296875 719.300781 400.296875 C 718.949219 400.296875 718.664062 400.195312 718.445312 400 C 718.226562 399.804688 718.105469 399.53125 718.078125 399.175781 C 718.078125 399.175781 717.335938 388.449219 717.335938 388.449219 C 717.335938 388.449219 717.714844 388.53125 717.714844 388.53125 C 717.714844 388.53125 712.289062 399.449219 712.289062 399.449219 C 712.148438 399.71875 711.972656 399.929688 711.761719 400.078125 C 711.550781 400.222656 711.324219 400.296875 711.085938 400.296875 Z M 711.085938 400.296875 " fill-opacity="1" fill-rule="nonzero"/><path fill="#9767fb" d="M 746.917969 359.882812 C 746.917969 359.882812 613.675781 359.882812 613.675781 359.882812 C 606.582031 359.882812 600.828125 354.128906 600.828125 347.03125 C 600.828125 347.03125 600.828125 187.300781 600.828125 187.300781 C 600.828125 180.203125 606.582031 174.449219 613.675781 174.449219 C 613.675781 174.449219 746.917969 174.449219 746.917969 174.449219 C 754.015625 174.449219 759.769531 180.203125 759.769531 187.300781 C 759.769531 187.300781 759.769531 347.03125 759.769531 347.03125 C 759.769531 354.128906 754.015625 359.882812 746.917969 359.882812 Z M 746.917969 359.882812 " fill-opacity="1" fill-rule="nonzero"/><path stroke-linecap="round" transform="matrix(1.183588, 0, 0, 1.183588, 742.487321, 247.550342)" fill-opacity="1" fill="#ff7d5c" fill-rule="nonzero" stroke-linejoin="round" d="M -7.791306 11.957525 C -7.791306 11.957525 -4.860598 14.112651 -3.781385 14.20176 C -2.705472 14.29087 7.789628 -2.214161 7.070153 -12.082196 C 6.934839 -12.798371 2.578382 -14.293428 2.578382 -14.293428 C 2.578382 -14.293428 -7.791306 11.957525 -7.791306 11.957525 Z M -7.791306 11.957525 " stroke="#000000" stroke-width="2" stroke-opacity="1" stroke-miterlimit="4"/><path stroke-linecap="round" transform="matrix(1.183588, 0, 0, 1.183588, 624.698998, 264.873349)" fill-opacity="1" fill="#ff7d5c" fill-rule="nonzero" stroke-linejoin="round" d="M -9.263885 -13.919465 C -9.263885 -13.919465 -12.08238 -10.81384 -12.640139 -9.698323 C -13.197897 -8.582806 -7.5048 6.272052 9.904525 13.463506 C 11.353377 13.922254 13.198271 8.572393 13.198271 8.572393 C 13.198271 8.572393 -9.263885 -13.919465 -9.263885 -13.919465 Z M -9.263885 -13.919465 " stroke="#000000" stroke-width="2" stroke-opacity="1" stroke-miterlimit="4"/><path stroke-linecap="butt" transform="matrix(1.183588, 0, 0, 1.183588, 680.351347, 271.886082)" fill-opacity="1" fill="#ffffff" fill-rule="nonzero" stroke-linejoin="miter" d="M -25.438886 -50.293437 C -28.914151 -51.725787 -56.283921 -19.844443 -56.283921 -19.844443 C -56.283921 -19.844443 -55.1288 -15.43188 -46.557801 -6.685963 C -39.551166 0.465887 -33.821765 2.647416 -33.821765 2.647416 C -33.821765 2.647416 -27.650118 -7.722272 -26.544502 -7.940095 C -25.438886 -8.161218 -23.481781 46.987566 -23.481781 46.987566 C -23.481781 46.987566 25.297335 58.456268 45.812286 31.545246 C 38.531723 11.251418 27.944212 -16.76522 28.386459 -17.42859 C 28.825405 -18.088659 44.709971 -8.603464 44.709971 -8.603464 C 44.709971 -8.603464 47.000411 -9.164523 51.85192 -20.273488 C 56.284284 -30.431954 55.076358 -34.854417 55.076358 -34.854417 C 55.076358 -34.854417 8.531576 -58.458493 6.323645 -57.352877 C 4.119014 -56.250561 5.663576 -34.854417 -5.587304 -33.969925 C -16.838184 -33.088732 -21.689693 -48.752175 -25.438886 -50.293437 Z M -25.438886 -50.293437 " stroke="#000000" stroke-width="2" stroke-opacity="1" stroke-miterlimit="10"/><path stroke-linecap="round" transform="matrix(1.183588, 0, 0, 1.183588, 671.714684, 225.99956)" fill-opacity="1" fill="#000000" fill-rule="nonzero" stroke-linejoin="round" d="M 13.623964 -18.583877 C 13.623964 -18.583877 18.142138 11.125839 15.584369 13.04664 C 13.026601 14.964141 3.557908 4.439337 3.557908 4.439337 C 3.557908 4.439337 -2.102185 18.584621 -5.722665 17.518609 C -9.346445 16.452597 -18.141867 -11.524437 -18.141867 -11.524437 C -18.141867 -11.524437 -15.603901 -8.841255 -13.293659 -5.620118 C -10.983417 -2.39898 -2.897569 10.518575 7.501822 1.610941 C 10.06289 -0.164646 10.788967 -5.336288 11.67676 -9.910568 C 12.581055 -14.550854 13.623964 -18.583877 13.623964 -18.583877 Z M 13.623964 -18.583877 " stroke="#000000" stroke-width="1.131" stroke-opacity="1" stroke-miterlimit="4"/><path stroke-linecap="round" transform="matrix(1.183588, 0, 0, 1.183588, 684.944851, 280.80915)" fill="none" stroke-linejoin="round" d="M -7.098655 -34.720111 C -7.098655 -34.720111 -2.118433 -17.984056 1.310627 -0.000469647 C 3.752883 12.804873 4.145624 26.243883 7.099434 34.719172 " stroke="#000000" stroke-width="2" stroke-opacity="1" stroke-miterlimit="4"/><path fill="#9767fb" d="M 677.492188 256.648438 C 677.691406 257.988281 677.1875 259.171875 676.363281 259.296875 C 675.542969 259.421875 674.710938 258.433594 674.511719 257.097656 C 674.308594 255.757812 674.816406 254.574219 675.636719 254.449219 C 676.460938 254.328125 677.292969 255.3125 677.492188 256.648438 Z M 677.492188 256.648438 " fill-opacity="1" fill-rule="nonzero"/><path fill="#9767fb" d="M 679.027344 276.226562 C 679.230469 277.566406 678.726562 278.75 677.902344 278.871094 C 677.078125 278.996094 676.246094 278.011719 676.046875 276.671875 C 675.847656 275.335938 676.351562 274.148438 677.175781 274.027344 C 678 273.902344 678.828125 274.886719 679.027344 276.226562 Z M 679.027344 276.226562 " fill-opacity="1" fill-rule="nonzero"/><path fill="#9767fb" d="M 683.5625 302.410156 C 683.761719 303.75 683.257812 304.933594 682.433594 305.058594 C 681.609375 305.183594 680.78125 304.195312 680.578125 302.859375 C 680.378906 301.519531 680.882812 300.335938 681.707031 300.210938 C 682.53125 300.089844 683.363281 301.074219 683.5625 302.410156 Z M 683.5625 302.410156 " fill-opacity="1" fill-rule="nonzero"/></svg>