<?xml version="1.0" standalone="no"?>
<!DOCTYPE svg PUBLIC "-//W3C//DTD SVG 20010904//EN"
 "http://www.w3.org/TR/2001/REC-SVG-20010904/DTD/svg10.dtd">
<svg version="1.0" xmlns="http://www.w3.org/2000/svg"
 width="3555.000000pt" height="1150.000000pt" viewBox="0 0 3555.000000 1150.000000"
 preserveAspectRatio="xMidYMid meet">

<g transform="translate(0.000000,1150.000000) scale(0.100000,-0.100000)"
fill="#000000" stroke="none">
<path d="M15828 10581 c-75 -3 -141 -10 -147 -16 -13 -13 -73 -324 -105 -540
-75 -508 -86 -1078 -30 -1540 46 -377 135 -746 255 -1048 42 -104 116 -257
125 -257 4 0 1868 1429 1914 1467 10 9 -107 221 -192 348 -118 177 -200 278
-348 425 -231 232 -491 414 -749 526 -71 31 -73 33 -45 41 53 14 412 7 544
-11 284 -38 649 -119 917 -205 l122 -38 -14 27 c-32 62 -138 191 -221 270
-290 275 -715 449 -1271 520 -138 18 -512 42 -588 38 -16 -1 -92 -4 -167 -7z"/>
<path d="M25660 10570 c-734 -51 -1282 -257 -1611 -607 -69 -74 -176 -219
-167 -228 2 -2 70 16 151 40 399 120 806 198 1117 212 129 6 357 -3 346 -14
-2 -3 -51 -26 -108 -52 -497 -228 -972 -692 -1226 -1198 l-40 -79 964 -735
c531 -404 969 -735 973 -737 4 -1 30 46 59 105 193 405 313 916 353 1503 14
214 6 681 -15 900 -32 314 -123 849 -150 878 -15 16 -465 24 -646 12z"/>
<path d="M23555 7674 c-493 -51 -984 -250 -1305 -527 -307 -266 -459 -651
-421 -1071 26 -300 135 -616 256 -747 75 -82 278 -327 372 -449 502 -656 806
-1309 858 -1842 5 -55 2 -84 -20 -164 -144 -529 -551 -875 -1157 -984 -135
-24 -391 -43 -441 -33 l-39 8 87 59 c105 71 240 197 307 286 58 76 140 239
163 325 10 36 19 117 22 200 6 163 -15 293 -65 398 -66 142 -286 384 -457 505
-121 86 -287 166 -410 198 -134 35 -329 43 -465 20 -399 -70 -883 -403 -1068
-736 -122 -220 -115 -481 18 -714 94 -164 239 -321 423 -460 l109 -81 -129 -3
c-376 -9 -754 100 -1025 295 -162 117 -327 310 -408 478 -109 224 -110 512 -4
862 143 474 527 1138 982 1702 127 157 262 473 314 732 29 147 32 391 5 515
-55 259 -171 467 -372 670 -273 276 -609 449 -1005 520 -156 28 -503 26 -695
-4 -563 -88 -1069 -310 -1532 -672 -141 -110 -454 -423 -575 -575 -227 -284
-377 -566 -452 -851 -79 -301 -79 -646 -1 -952 100 -395 327 -812 626 -1148
424 -477 533 -581 816 -782 493 -349 1306 -745 2160 -1052 l211 -76 61 -91
c246 -368 675 -612 1231 -700 161 -25 638 -25 820 0 417 58 754 176 1021 355
205 139 372 311 453 470 9 18 27 37 39 42 12 5 110 44 217 86 378 149 671 279
1012 450 418 209 691 378 1008 625 102 79 237 180 300 223 421 291 633 493
824 785 189 290 295 576 342 921 19 141 18 448 -1 597 -69 521 -304 984 -700
1378 -459 457 -963 772 -1470 921 -200 59 -380 85 -605 89 -107 2 -213 1 -235
-1z m-5655 -623 c356 -72 683 -258 913 -519 466 -528 548 -1280 209 -1893
-233 -421 -660 -726 -1137 -815 -152 -29 -482 -26 -622 4 -224 49 -447 145
-623 270 -122 86 -306 270 -392 392 -127 178 -221 396 -270 623 -30 139 -33
493 -5 632 104 514 421 930 882 1160 180 90 357 143 565 169 84 10 387 -4 480
-23z m6681 15 c257 -35 486 -121 700 -265 680 -455 920 -1340 564 -2076 -224
-464 -637 -785 -1155 -897 -91 -19 -134 -22 -325 -22 -190 0 -234 3 -322 22
-570 124 -1017 508 -1216 1042 -63 171 -89 311 -95 514 -5 201 5 303 48 471
205 796 983 1319 1801 1211z"/>
<path d="M17417 5514 c-393 -71 -688 -425 -687 -826 1 -367 234 -683 595 -805
74 -25 92 -27 245 -27 161 -1 167 0 260 32 273 94 473 303 550 572 27 94 37
262 21 356 -13 77 -49 194 -59 194 -4 0 -20 -14 -36 -30 -54 -55 -110 -75
-211 -75 -73 0 -98 4 -136 23 -182 89 -234 322 -109 481 22 28 40 53 40 55 0
9 -131 45 -200 56 -86 13 -178 11 -273 -6z"/>
<path d="M24273 5516 c-39 -8 -95 -22 -124 -31 -47 -16 -51 -19 -34 -29 44
-25 109 -94 133 -141 36 -67 38 -195 6 -266 -31 -67 -87 -124 -152 -156 -49
-24 -69 -28 -137 -27 -118 1 -209 51 -268 145 -35 57 -35 57 -72 -51 -71 -209
-56 -448 41 -643 102 -205 274 -354 494 -428 82 -28 112 -33 225 -36 149 -6
227 7 350 56 193 78 352 227 441 416 55 116 73 186 81 312 24 400 -239 764
-624 864 -101 26 -265 33 -360 15z"/>
<path d="M14504 7072 c-103 -36 -155 -86 -440 -417 -326 -380 -951 -1087 -965
-1093 -5 -2 -10 273 -11 610 -3 469 -7 622 -17 653 -8 24 -34 60 -65 91 -41
40 -67 55 -126 75 -68 22 -91 24 -255 24 -160 0 -188 -3 -253 -23 -91 -28
-146 -79 -182 -167 l-25 -60 -3 -1610 c-2 -1066 1 -1636 7 -1688 29 -215 129
-290 407 -304 201 -10 361 26 427 95 14 15 38 54 54 87 l28 60 3 618 c1 339 6
617 10 616 4 0 273 -304 597 -676 325 -371 621 -703 658 -739 95 -88 158 -118
240 -112 111 7 249 91 401 245 160 161 177 283 61 457 -74 111 -293 346 -760
814 l-473 473 112 107 c449 430 941 935 1072 1099 105 131 149 267 114 356
-50 124 -242 306 -405 383 -91 43 -145 49 -211 26z"/>
<path d="M27385 7064 c-89 -13 -153 -28 -185 -44 -81 -42 -132 -126 -150 -246
-14 -97 -13 -3197 1 -3284 5 -35 24 -91 42 -125 26 -48 43 -66 86 -92 78 -47
142 -58 331 -58 181 0 266 17 341 69 46 32 95 124 108 206 7 42 11 392 11 988
l0 924 38 -49 c84 -106 481 -632 998 -1318 299 -398 559 -735 577 -748 54 -41
90 -55 171 -66 181 -25 406 -7 502 42 62 32 86 58 121 132 l28 60 0 1670 c0
1609 -1 1672 -19 1732 -47 154 -164 208 -451 207 -234 0 -327 -34 -392 -142
-18 -31 -36 -79 -42 -116 -7 -42 -11 -369 -11 -1011 0 -868 -1 -946 -16 -934
-20 16 -589 776 -1111 1484 -215 292 -414 556 -442 587 -56 62 -121 98 -211
117 -58 13 -273 22 -325 15z"/>
<path d="M5072 7005 c-129 -28 -188 -75 -234 -184 l-23 -56 -3 -1605 c-2
-1054 1 -1634 8 -1690 13 -114 48 -184 113 -227 80 -54 133 -65 314 -71 191
-5 278 10 364 61 46 27 59 43 89 102 l35 70 3 408 3 407 340 2 c186 1 373 3
416 3 l76 0 104 -245 c250 -593 304 -709 350 -756 24 -25 69 -57 100 -71 50
-23 64 -25 142 -20 198 12 483 164 549 293 50 98 34 191 -78 449 -38 88 -127
295 -199 460 l-129 299 39 46 c168 191 267 379 321 610 28 122 36 429 15 565
-73 456 -331 801 -760 1017 -122 61 -273 112 -391 133 -124 21 -1465 21 -1564
0z m1443 -930 c143 -38 283 -149 324 -260 62 -163 43 -353 -46 -469 -44 -58
-136 -124 -220 -157 -57 -24 -65 -24 -445 -27 l-388 -3 0 466 0 465 358 0
c289 0 369 -3 417 -15z"/>
<path d="M8745 7005 c-121 -26 -180 -65 -222 -148 -53 -106 -52 -77 -52 -1767
-1 -987 3 -1590 9 -1634 18 -121 63 -196 145 -238 105 -55 47 -52 1315 -56
786 -2 1202 1 1255 8 104 13 176 48 213 103 58 85 82 191 82 356 -1 182 -38
318 -102 378 -12 12 -50 34 -83 50 l-60 28 -920 5 -920 5 0 265 0 265 625 5
c710 6 695 5 775 84 79 79 111 216 102 431 -10 220 -47 307 -157 363 -38 19
-92 37 -130 42 -36 5 -325 10 -642 10 l-578 0 0 265 0 265 873 0 c943 1 984 3
1071 54 97 57 146 197 146 415 -1 182 -38 318 -102 378 -12 12 -50 34 -83 50
l-60 28 -1220 2 c-979 1 -1232 -1 -1280 -12z"/>
</g>
</svg>
